<?xml version="1.0" encoding="utf-8"?>
<!-- Generator: Adobe Illustrator 16.0.0, SVG Export Plug-In . SVG Version: 6.00 Build 0)  -->
<!DOCTYPE svg PUBLIC "-//W3C//DTD SVG 1.1//EN" "http://www.w3.org/Graphics/SVG/1.1/DTD/svg11.dtd">
<svg version="1.1" id="Layer_1" xmlns="http://www.w3.org/2000/svg" xmlns:xlink="http://www.w3.org/1999/xlink" x="0px" y="0px"
	 width="235px" height="235.7px" viewBox="0 0 235 235.7" enable-background="new 0 0 235 235.7" xml:space="preserve">
<g>
	<path fill="#D1AF22" stroke="#492806" stroke-miterlimit="10" d="M119.2,230.7c-61.8,0-112-50.2-112-112s50.2-112,112-112
		s112,50.2,112,112S181,230.7,119.2,230.7z"/>
	<g>
		
			<radialGradient id="SVGID_1_" cx="115.2383" cy="122.7305" r="86.4136" gradientTransform="matrix(0.9942 0.1074 -6.065883e-002 0.5616 8.1111 41.4348)" gradientUnits="userSpaceOnUse">
			<stop  offset="1.672230e-002" style="stop-color:#924C00"/>
			<stop  offset="0.9677" style="stop-color:#EAE047"/>
		</radialGradient>
		<circle fill="url(#SVGID_1_)" cx="119.2" cy="118.7" r="102"/>
		<circle fill="none" stroke="#492806" stroke-miterlimit="10" stroke-dasharray="11.8687,11.8687" cx="119.2" cy="118.7" r="102"/>
	</g>
	<g id="delfin">
		<g>
			<radialGradient id="SVGID_2_" cx="91.4111" cy="96.876" r="91.9502" gradientUnits="userSpaceOnUse">
				<stop  offset="5.376360e-003" style="stop-color:#4F6860"/>
				<stop  offset="0.9677" style="stop-color:#40516A"/>
			</radialGradient>
			<path fill="url(#SVGID_2_)" d="M142.3,64.6c-5-1.6-11.6,0.5-22.2,5.4c-14.7,10.7-85.1,26.3-77.5,33c7.6,6.7,19.9,7.4,25.3,7.5
				c12.7-2.4,43.4,2.5,49.7,3.8c6.3,1.3,55.3,12.2,61,28.9c5.7,16.7,0.1-25.7-32.1-40.7c-32.2-15-13.2-15.7-13.2-15.7
				s6.8-14.8,8.3-17.2C143.3,67.1,142.3,64.6,142.3,64.6z"/>
			<radialGradient id="SVGID_3_" cx="122.5459" cy="115.1885" r="68.6677" gradientUnits="userSpaceOnUse">
				<stop  offset="5.376360e-003" style="stop-color:#5CA096"/>
				<stop  offset="0.9677" style="stop-color:#547283"/>
			</radialGradient>
			<path fill="url(#SVGID_3_)" stroke="#1E665D" stroke-width="0.2604" stroke-miterlimit="10" d="M49.7,91.2
				C59.4,86,61.1,79,67,75.6c6.3-3.6,14.8-6.9,36.4-1.7c57.7,19.6,78.5,57.7,78.5,57.7s6-1,10.1-2c4.1-1,18.2-0.6,17.1,2.1
				c-1.2,2.7-16.5,10.9-17.2,11.7c-0.7,0.8-1.4,14.7-3.4,15.8c0,0-4.4,0.4-9.3-13.6c-4.8-14.1-27-33.7-48.6-35.3
				c-21.6-1.6-21.6-1.6-21.6-1.6s4.6,10,3,15.2c-1.6,5.3-1.3,6.5-4.2,5.4c-2.9-1.2-12.7-9.1-17.1-20.1c-4.4-11-15.7-6.3-25-4.9
				c-9.3,1.5-21.9,4.9-27.1,0.7c-5.1-4.2-2.3-9.8,3.6-11.4C48.2,92.1,49.7,91.2,49.7,91.2z"/>
		</g>
		
			<ellipse transform="matrix(-0.999 4.578745e-002 -4.578745e-002 -0.999 143.868 175.6665)" fill="#19211F" stroke="#000000" stroke-width="0.2604" stroke-miterlimit="10" cx="69.9" cy="89.5" rx="2.4" ry="2.2"/>
	</g>
	<path opacity="0.3" fill="#97C9C0" d="M72.3,76.2c7-2.8,23-3.4,43.7,5.7c31.9,14,56.7,40.2,63.3,50.3c6,9.3-8.3-14.3-43.6-36.7
		C97.4,71.2,72.3,76.2,72.3,76.2z"/>
	<path opacity="0.3" fill="#97C9C0" d="M139.7,66.2c-2-1-11.4,1.7-16.6,5s-8.5,5.3-8.5,5.3s10.8,5,12.3,5.5s-6.5-3.5-5.3-6
		C124,70.9,139.7,66.2,139.7,66.2z"/>
	<path fill="#97C9C0" d="M169.1,150.1c-3.3-7.7-18.3-21-35-19.3c-16.7,1.7-19,13-13,13s9.8-4.6,18.6-6.3
		C155.1,134.3,169.1,150.1,169.1,150.1z"/>
	<path fill="#5890A3" d="M154.7,148.4c-9.6-0.1-14.7,7.4-11.1,10.8c5,4.8,10.2-2.9,11.5-4.5s4.8-4.6,10.7,0.7
		C169.9,159,164.9,148.5,154.7,148.4z"/>
</g>
</svg>
