<?xml version="1.0" encoding="utf-8"?>
<!-- Generator: Adobe Illustrator 16.0.0, SVG Export Plug-In . SVG Version: 6.00 Build 0)  -->
<!DOCTYPE svg PUBLIC "-//W3C//DTD SVG 1.1//EN" "http://www.w3.org/Graphics/SVG/1.1/DTD/svg11.dtd">
<svg version="1.1" id="Layer_1" xmlns="http://www.w3.org/2000/svg" xmlns:xlink="http://www.w3.org/1999/xlink" x="0px" y="0px"
	 width="235px" height="235.7px" viewBox="0 0 235 235.7" enable-background="new 0 0 235 235.7" xml:space="preserve">
<g>
	<path fill="#D1AF22" stroke="#492806" stroke-miterlimit="10" d="M120.2,230.5c-61.8,0-112-50.2-112-112s50.2-112,112-112
		s112,50.2,112,112S181.9,230.5,120.2,230.5z"/>
	<g>
		
			<radialGradient id="SVGID_1_" cx="123.167" cy="147.4922" r="86.4136" gradientTransform="matrix(0.9991 4.259025e-002 -2.405578e-002 0.5643 3.6598 59.0157)" gradientUnits="userSpaceOnUse">
			<stop  offset="1.672230e-002" style="stop-color:#924C00"/>
			<stop  offset="0.9677" style="stop-color:#EAE047"/>
		</radialGradient>
		<circle fill="url(#SVGID_1_)" cx="120.2" cy="118.5" r="102"/>
		<circle fill="none" stroke="#492806" stroke-miterlimit="10" stroke-dasharray="11.8687,11.8687" cx="120.2" cy="118.5" r="102"/>
	</g>
	<g>
		<path fill="#020202" d="M206.7,146.3c-1.8,5.5-7,8.8-11.5,7.3c-4.6-1.5-6.8-7.2-5-12.7c1.8-5.5,7-8.8,11.5-7.3
			C206.3,135.2,208.5,140.8,206.7,146.3z"/>
		
			<ellipse transform="matrix(0.311 -0.9504 0.9504 0.311 37.706 229.3741)" fill="#020202" cx="177.1" cy="88.7" rx="8.2" ry="9.8"/>
		<path fill="#161313" d="M77.9,66.3c4.4-2.6,7.4-5.9,7.8-10.2c0.5-6.4-9.2-8.6-15.4-3.2c-0.9,0.5-1.8,1.4-2.8,2.7
			c-6.1,7.8-5,25,1.3,36.2c10.5,18.3,21.8,10.4,24.3,5.7C96.1,91.6,80.5,82.4,77.9,66.3z"/>
		<path fill="#161313" d="M144,79.7c-7.9,6.6-15.9,26.8-10.7,41.4c0,0-5,12-10.4-10.7c-4-16.8,6.1-34.6,6.1-34.6
			c2.4-6.6,5.2-15.2,6.6-14.5c0.7,0.4,2.1,3.6,2.3,6.3c3.1-1.7,4.9-4.1,8-4.7c3.7-0.8,2.1,3.6-0.5,8.3c2.4,0.1,7.7-1.7,8.5-0.9
			C155.6,72.3,148,77.9,144,79.7z"/>
		<g>
			<g>
				<path id="SVGID_4_" fill="#FFFFFF" d="M138.9,115.1c-22.1,1.6-34.8-52.1-66.5-15.4c-13.7,16-1.1,42.9,23.2,54.2
					c24.3,11.3,53.5-0.8,56.3-4.2C154.8,146.3,138.9,115.1,138.9,115.1z"/>
			</g>
			<g>
				<defs>
					<path id="SVGID_3_" d="M138.9,115.1c-22.1,1.6-34.8-52.1-66.5-15.4c-13.7,16-1.1,42.9,23.2,54.2c24.3,11.3,53.5-0.8,56.3-4.2
						C154.8,146.3,138.9,115.1,138.9,115.1z"/>
				</defs>
				<clipPath id="SVGID_5_">
					<use xlink:href="#SVGID_3_"  overflow="visible"/>
				</clipPath>
				<path clip-path="url(#SVGID_5_)" fill="#D8D6D6" d="M102.1,84.1c-14.4,3.7-33.4,32.2-11.2,53.2c22.2,21,46.2,12,54.2,7.5
					c7.9-4.4,5.2,22.6,5.2,22.6s-121.3-11-88.5-69.8C94.5,39,102.1,84.1,102.1,84.1z"/>
			</g>
		</g>
		
			<ellipse transform="matrix(0.311 -0.9504 0.9504 0.311 -85.1682 161.8223)" fill="#020202" cx="69" cy="139.6" rx="8.2" ry="9.8"/>
		<path fill="#161313" d="M84.3,122.8c-1.7-7.8-22-8.2-35.6-24.3c2.7-4.8,4-9.7,2.5-14.5c-2.5-7.9-13.9-4.9-17,5.4
			c-0.4,1.4-0.6,2.8-0.5,4.2c0,0.4,0,0.8,0,1.2c0.5,11.3,13.6,28.1,26.7,35.8C81.9,143.1,85.6,129,84.3,122.8z"/>
		<path fill="#161313" d="M163.1,184.8c-0.8,0.6-4.6,0.7-6.9,1c3.2,3.4,8.3,9.8,3.4,9.1c-2.6-0.3-5.4-3-8.4-3.9
			c2,3.5,3.6,9.8,0.8,9.2c-2.5-0.6-8.1-6.1-11-9.6c-7.5-9.9-14.7-19.9-14.8-33.2c-0.1-16.2,4.5-13.8,7.3-9.4
			c1.3,2,2.4,18.4,17.6,29.5C152.8,179.4,167.6,181.4,163.1,184.8z"/>
		<g>
			<g>
				<path id="SVGID_2_" fill="#FFFFFF" d="M196.7,137.2c0.2-16.7-15.4-43.6-32.8-47.6c-17.4-4-31.9,8.2-29.4,35.4
					c2.5,27.2,16.3,47.3,40.5,41.6C195,161.8,196.7,137.2,196.7,137.2z"/>
			</g>
			<g>
				<defs>
					<path id="SVGID_6_" d="M196.7,137.2c0.2-16.7-15.4-43.6-32.8-47.6c-17.4-4-31.9,8.2-29.4,35.4c2.5,27.2,16.3,47.3,40.5,41.6
						C195,161.8,196.7,137.2,196.7,137.2z"/>
				</defs>
				<clipPath id="SVGID_7_">
					<use xlink:href="#SVGID_6_"  overflow="visible"/>
				</clipPath>
				<path clip-path="url(#SVGID_7_)" fill="#D8D6D6" d="M157.9,80.7c-17.8,8.1-31.7,56.7,3.1,77.9c27.2,16.6,36.6-31.8,36.5-39
					c-0.1-7.1,18.1,54.3-25.2,53c-43.3-1.3-49.9-45.3-43.8-69.4C134.5,79,157.9,80.7,157.9,80.7z"/>
			</g>
		</g>
		<path fill="#161313" d="M167.3,128.7c-0.5-5-5.3-11.3-8.4-12.6c-3.1-1.3,5.6,16.4,7.3,16C168,131.6,167.3,128.7,167.3,128.7z"/>
		<path fill="#161313" d="M150.9,111.5c-2.4,4.8,3.3,22.6,9.1,25c5.8,2.4-16-0.6-17.2-5.2C140.6,122.8,150.9,111.5,150.9,111.5z"/>
		<path fill="#161313" d="M164,94.9c-6.3-2-12.6-0.9-11.8,4.4c0.9,5.4,11.4,14.2,17.3,12.8C185.4,108.4,171.1,97.1,164,94.9z"/>
		
			<ellipse transform="matrix(-0.3108 0.9505 -0.9505 -0.3108 318.6818 -22.6219)" fill="#FFFFFF" cx="167.5" cy="104.2" rx="2.8" ry="3.6"/>
		<g>
			<path fill="#161313" d="M189.3,131c-2.4-5.9-12.9-6.9-16-2.2c-3.1,4.7-3.6,18.7,2.2,20.6C182,151.6,191.5,136.5,189.3,131z"/>
			
				<ellipse transform="matrix(-0.3109 0.9504 -0.9504 -0.3109 363.9044 -0.1656)" fill="#FFFFFF" cx="182" cy="131.8" rx="2.9" ry="3.4"/>
		</g>
	</g>
</g>
</svg>
