<?xml version="1.0" encoding="utf-8"?>
<!-- Generator: Adobe Illustrator 16.0.0, SVG Export Plug-In . SVG Version: 6.00 Build 0)  -->
<!DOCTYPE svg PUBLIC "-//W3C//DTD SVG 1.1//EN" "http://www.w3.org/Graphics/SVG/1.1/DTD/svg11.dtd">
<svg version="1.1" id="Layer_1" xmlns="http://www.w3.org/2000/svg" xmlns:xlink="http://www.w3.org/1999/xlink" x="0px" y="0px"
	 width="235px" height="235.7px" viewBox="0 0 235 235.7" enable-background="new 0 0 235 235.7" xml:space="preserve">
<g>
	<path fill="#D1AF22" stroke="#492806" stroke-miterlimit="10" d="M120.2,230.5c-61.8,0-112-50.2-112-112s50.2-112,112-112
		s112,50.2,112,112S181.9,230.5,120.2,230.5z"/>
	<g>
		
			<radialGradient id="SVGID_1_" cx="123.167" cy="147.4922" r="86.4136" gradientTransform="matrix(0.9991 4.259025e-002 -2.405578e-002 0.5643 3.6598 59.0157)" gradientUnits="userSpaceOnUse">
			<stop  offset="1.672230e-002" style="stop-color:#924C00"/>
			<stop  offset="0.9677" style="stop-color:#EAE047"/>
		</radialGradient>
		<circle fill="url(#SVGID_1_)" cx="120.2" cy="118.5" r="102"/>
		<circle fill="none" stroke="#492806" stroke-miterlimit="10" stroke-dasharray="11.8687,11.8687" cx="120.2" cy="118.5" r="102"/>
	</g>
	<g>
		<path fill="#F4F2B8" d="M100,111.3c3.4-3-2.6-10.1-4.8-12.8c0-0.1-15.4-17.7-32.4-14.3c-24.7,5.4-39.5,61.9,0.1,34.4
			C77.9,108.3,88.2,121.8,100,111.3L100,111.3z"/>
		<path fill="#F44719" d="M69.7,95.5c4.5,0,8.2-3.2,8.2-7.2c0-0.9-0.1-1.7-0.5-2.4c-4.7-1.8-9.2-2.7-14-1.8c-1.2,1.2-2,2.8-2,4.3
			C61.5,92.2,65.2,95.5,69.7,95.5L69.7,95.5z M51.4,99.1c0-2-2-3.7-4.5-3.7c-0.6,1-3.3,4.9-3.8,6.2c0.8,0.8,2.4,1.2,3.7,1.2
			C49.4,102.8,51.4,101.2,51.4,99.1L51.4,99.1z"/>
		<ellipse fill="#F44719" cx="65.6" cy="107.1" rx="4.1" ry="4.2"/>
		<path fill="#BEF24C" d="M93.7,96.8c0.5,0.6,1,1.1,1.4,1.6C94.8,97.9,94.3,97.3,93.7,96.8z"/>
		<path fill="#F44719" d="M83.3,101.6c0,3.4,2.9,6.1,6.4,6.1s6.4-2.8,6.4-6.1c0-1.1-0.3-2.2-0.9-3.1c-0.5-0.6-1-1.1-1.4-1.6
			c-1.1-0.9-2.5-1.4-4.1-1.4C86.2,95.5,83.3,98.2,83.3,101.6L83.3,101.6z M46.9,119.6c0-3.1-2.9-5.6-6.5-5.6c-0.6,0-1.2,0.1-1.8,0.2
			c-1.2,6,0.7,9.5,3.6,11.1C44.8,124.6,46.9,122,46.9,119.6L46.9,119.6z"/>
		<path fill="#BEF24C" d="M162.1,115.9c-2.3-2.8-7.5-5.2-12-5.9C154.8,111.7,158.7,113.7,162.1,115.9L162.1,115.9z"/>
		
			<linearGradient id="SVGID_2_" gradientUnits="userSpaceOnUse" x1="-477.54" y1="313.6904" x2="-492.3978" y2="261.2426" gradientTransform="matrix(1 0 0 1 558.0801 -174.2227)">
			<stop  offset="0" style="stop-color:#F4F2B8"/>
			<stop  offset="0.995" style="stop-color:#744038"/>
		</linearGradient>
		<path fill="url(#SVGID_2_)" d="M86.7,133.7l0.1,0c-5.4-8.1-9.8-14.9-9.1-17.3c0.4-1.4,1.4-1.2,1.8-1.5c-7.1-1.4-12.5,1-15.1,3
			c17.5,23,13.7,33.2,10.9,40.6c-7.2,19.1,21.9,10.5,23.8,4.8C101.3,156.3,93.7,144.2,86.7,133.7z"/>
		<ellipse fill="none" cx="160.6" cy="68.1" rx="5.6" ry="6.1"/>
		<ellipse fill="none" cx="170.7" cy="87.7" rx="4.5" ry="3.9"/>
		<path fill="#F4F2B8" d="M159.3,113.5c1.1,0.7,2.1,1.6,2.8,2.4c0.3,0.1,0.6,0.4,0.9,0.6c0.3-0.8,0.4-1.6,0.6-2.4
			C162.3,114.1,160.9,114,159.3,113.5L159.3,113.5z M136.5,83.6c12.4,2.2,32.1,10,49,19.2c6.9,2,10.5,1.1,12-2.5
			c0.1-14.7-7.3-26-7.4-26.1c-4.5-6.9-17.5-24-46.7-12.3C135.4,65.2,121,77.9,136.5,83.6L136.5,83.6z"/>
		
			<linearGradient id="SVGID_3_" gradientUnits="userSpaceOnUse" x1="-482.0654" y1="281.9619" x2="-475.4311" y2="309.9772" gradientTransform="matrix(1 0 0 -1 637.1201 396.4961)">
			<stop  offset="0" style="stop-color:#F4F2B8"/>
			<stop  offset="0.995" style="stop-color:#744038"/>
		</linearGradient>
		<path fill="url(#SVGID_3_)" d="M159.3,113.5c-2.1-1.4-4.7-2.5-7.3-3.1C154.9,111.9,157.2,112.9,159.3,113.5z"/>
		
			<linearGradient id="SVGID_4_" gradientUnits="userSpaceOnUse" x1="-481.6528" y1="279.5762" x2="-471.1878" y2="323.7678" gradientTransform="matrix(1 0 0 -1 637.1201 396.4961)">
			<stop  offset="0" style="stop-color:#F4F2B8"/>
			<stop  offset="0.995" style="stop-color:#744038"/>
		</linearGradient>
		<path fill="url(#SVGID_4_)" d="M148.3,109.4c2.4,0.3,10.7,4.7,14.6,7.1c1.8-6.4,4.7-16,6.7-21.4c0.1,0-0.1-0.1,0,0
			c-3.3-2.8-8.1-4-13.1-5.6C155.5,95.7,152.1,103.1,148.3,109.4L148.3,109.4z"/>
		<path fill="none" d="M163.6,146.2c-2.4,1-4.9,1.8-7.5,2.4C158.8,148.2,161.4,147.5,163.6,146.2z M142.5,117.5
			c-0.8-0.5-1.7-0.9-2.7-0.9c-2.9,0-5.1,2.5-5.1,5.6c0,1.4,0.4,2.6,1.1,3.5c1,1.3,2.4,2.1,4,2.1c2.9,0,5.1-2.5,5.1-5.6
			C144.9,120.2,143.9,118.5,142.5,117.5L142.5,117.5z M134.4,132.9c1.9,0,3.4,1.4,3.4,3s-1.5,3-3.4,3c-1.9,0-3.4-1.4-3.4-3
			S132.5,132.9,134.4,132.9L134.4,132.9z M153.9,133c3.3,0,5.9,2.6,5.9,5.9c0,3.3-2.6,5.9-5.9,5.9c-3.3,0-5.9-2.6-5.9-5.9
			C148,135.7,150.6,133,153.9,133L153.9,133z"/>
		<path fill="#F4F2B8" d="M177.3,135.3c0.9-5.4-13.2-23.4-30.3-26.3c-11.5-2-21.3,1-28.9,7.7c-7,5.6-13.4,18.7-13.4,22.5
			c0,0,18.2,3.6,17.8,4.5c1.5,0.4,23.5,6.1,33.5,4.9C167.2,147.3,177,137.3,177.3,135.3z"/>
		<path fill="#F4F2B8" d="M165.3,145.4c-0.5,0.1-1.1,0.4-1.8,0.8C164.2,145.9,164.8,145.6,165.3,145.4L165.3,145.4z"/>
		
			<linearGradient id="SVGID_5_" gradientUnits="userSpaceOnUse" x1="-481.0698" y1="215.1885" x2="-466.4633" y2="276.8698" gradientTransform="matrix(1 0 0 -1 637.1201 396.4961)">
			<stop  offset="0" style="stop-color:#F4F2B8"/>
			<stop  offset="0.995" style="stop-color:#744038"/>
		</linearGradient>
		<path fill="url(#SVGID_5_)" d="M165.3,145.4c-0.5,0.1-1.1,0.4-1.8,0.8C164.2,145.9,164.8,145.6,165.3,145.4L165.3,145.4z"/>
		<path fill="#F4F2B8" d="M127.5,157.6c-6.8,6.4,17.1,14.3,25.1,12.4c8-2,9.6-9.1,8-12.4c-1.4-2.6-5.1-3.7-8.5-8.4
			c1.4-0.1,2.7-0.3,4.1-0.6c-10,1.3-22.4-2.9-28.9-3.7l3.1,0.7C130.8,150.1,130.4,154.9,127.5,157.6L127.5,157.6z"/>
		
			<linearGradient id="SVGID_6_" gradientUnits="userSpaceOnUse" x1="-493.7607" y1="234.4229" x2="-485.7428" y2="268.2805" gradientTransform="matrix(1 0 0 -1 637.1201 396.4961)">
			<stop  offset="0" style="stop-color:#F4F2B8"/>
			<stop  offset="0.995" style="stop-color:#744038"/>
		</linearGradient>
		<path fill="url(#SVGID_6_)" d="M127.5,157.6c-6.8,6.4,17.1,14.3,25.1,12.4c8-2,9.6-9.1,8-12.4c-1.4-2.6-5.1-3.7-8.5-8.4
			c1.4-0.1,2.7-0.3,4.1-0.6c-10,1.3-26.8-3.3-25.7-3C130.8,150.1,130.4,154.9,127.5,157.6L127.5,157.6z"/>
		<ellipse fill="#F44719" cx="160.6" cy="68.1" rx="5.6" ry="6.1"/>
		<path fill="#F44719" d="M134.2,74.1c2.9,0,5.1-2.2,5.1-4.8c0-1.7-0.9-3.1-2.2-4c-3.8,2.1-5.5,4.4-6.5,7.3
			C131.5,73.9,132.6,74.1,134.2,74.1z M182.7,81.2c0,3.9,3,7.1,6.9,7.1c2.4,0,4.5-1.3,5.8-3.2c-0.5-1.5-1.2-3.1-1.9-4.8
			c-1-2.2-2-4.2-3.1-6h-0.7C185.7,74.1,182.7,77.3,182.7,81.2L182.7,81.2z M179,68.1c1.9,0,3.6-0.6,4.8-1.7c-3-2.9-6.5-4.9-10-6.3
			c-0.8,0.8-1.2,1.8-1.2,2.9C172.5,65.8,175.4,68.1,179,68.1L179,68.1z"/>
		<ellipse fill="#F44719" cx="170.7" cy="87.7" rx="4.5" ry="3.9"/>
		<path fill="#F44719" d="M191.7,95.5c-3.3,0-6,3.3-6.2,7.3c5.4,1.8,10.4,1.9,12-2.5C196.5,97.5,194.3,95.5,191.7,95.5L191.7,95.5z
			 M143.3,78.9c-3.2,0-5.9,2-6.7,4.6c1.4,0.5,3,1,4.9,1.3c0,0,3.7,1.1,8.4,2.5c0.3-0.6,0.3-1.3,0.3-1.9
			C150.2,81.8,147.1,78.9,143.3,78.9z M142.5,117.5c-0.8-0.5-1.7-0.9-2.7-0.9c-2.9,0-5.1,2.5-5.1,5.6c0,1.4,0.4,2.6,1.1,3.5
			c1,1.3,2.4,2.1,4,2.1c2.9,0,5.1-2.5,5.1-5.6C144.9,120.2,143.9,118.5,142.5,117.5L142.5,117.5z M165.3,126.2c0,3.7,2.2,6.7,5,6.7
			c2.1,0,3.8-1.7,4.6-4c-1.5-2.6-3.7-5.6-7.1-8.5C166.4,121.5,165.3,123.8,165.3,126.2L165.3,126.2z M117.5,126.2
			c3.1,0,5.6-2.2,5.6-4.8c0-2.5-2.2-4.5-5-4.8c-2.2,1.9-4.2,4.1-5.9,6.3C113,124.9,115.1,126.2,117.5,126.2L117.5,126.2z M116,132.9
			c-3.8,0-6.9,3.3-7.2,7.3c3.3,0.8,8.3,2.1,13.8,3.4c0.3-0.9,0.6-1.9,0.6-2.9C123.1,136.5,119.9,132.9,116,132.9L116,132.9z
			 M153.9,133c3.3,0,5.9,2.6,5.9,5.9c0,3.3-2.6,5.9-5.9,5.9c-3.3,0-5.9-2.6-5.9-5.9C148,135.7,150.6,133,153.9,133L153.9,133z
			 M147,114.3c0,2.9,3.4,5.4,7.7,5.4c4.2,0,9.2-1.8,7.3-4.1c-3.7-2.9-7.3-4.5-12-5.5C148.8,109.8,147.1,111.3,147,114.3L147,114.3z
			 M134.4,132.9c1.9,0,3.4,1.4,3.4,3s-1.5,3-3.4,3c-1.9,0-3.4-1.4-3.4-3S132.5,132.9,134.4,132.9L134.4,132.9z"/>
	</g>
</g>
</svg>
