<?xml version="1.0" encoding="utf-8"?>
<!-- Generator: Adobe Illustrator 16.0.0, SVG Export Plug-In . SVG Version: 6.00 Build 0)  -->
<!DOCTYPE svg PUBLIC "-//W3C//DTD SVG 1.1//EN" "http://www.w3.org/Graphics/SVG/1.1/DTD/svg11.dtd">
<svg version="1.1" id="Layer_1" xmlns="http://www.w3.org/2000/svg" xmlns:xlink="http://www.w3.org/1999/xlink" x="0px" y="0px"
	 width="235px" height="235.7px" viewBox="0 0 235 235.7" enable-background="new 0 0 235 235.7" xml:space="preserve">
<g>
	<path fill="#D1AF22" stroke="#492806" stroke-miterlimit="10" d="M120.2,230.5c-61.8,0-112-50.2-112-112s50.2-112,112-112
		s112,50.2,112,112S181.9,230.5,120.2,230.5z"/>
	<g>
		
			<radialGradient id="SVGID_1_" cx="111.5" cy="121.8252" r="94.9739" gradientTransform="matrix(0.4318 0.902 -0.5236 0.2507 127.1384 -9.2821)" gradientUnits="userSpaceOnUse">
			<stop  offset="5.376360e-003" style="stop-color:#924C00"/>
			<stop  offset="0.9677" style="stop-color:#EAE047"/>
		</radialGradient>
		<circle fill="url(#SVGID_1_)" cx="120.2" cy="118.5" r="102"/>
		<circle fill="none" stroke="#492806" stroke-miterlimit="10" stroke-dasharray="11.8687,11.8687" cx="120.2" cy="118.5" r="102"/>
	</g>
	<g>
		<path fill="#FCE895" d="M143.8,153.6c-2.2,0.9-3.1,2.7-3.1,5c-2.6-1.9-5.5-2.6-8.1-0.5c-2.8,2.2-4.1,5.2-4.4,8.5
			c-1.9-2.8-4.4-4.5-7.4-3.2c-14.7,6.7,0.5,39.2,5.4,33.9c4.7-5,4.9-12.4,5.4-16.6c5.1,10.2,14.4,18.6,16.6,14.5
			c4-7.2,2-16,1.5-20.9c3.4,2.7,8.5,6.7,14.7,6.8C171.6,181.2,158.8,147.7,143.8,153.6z"/>
		<path fill="#F24C0A" d="M155.1,159.7c-3.6-3.8-7.2-5.3-10.5-3.9l-0.1,0c-1.9,0.8-6.4,2.3-9.6,3.6c-1.9,0.8-12.8,5.9-13.1,6l-0.1,0
			c-3.3,1.4-4.7,5.1-4.5,10.3c0.3,8.4,5,17,7.3,18.8c3-3.7,6-15.6,4.9-20.9c-0.1-0.7-0.3-1.3-0.5-1.9c1.4,2.8,3.9,7.2,5,9
			c4.6,7.6,9.7,11.6,11.9,12.3c2.7-5.3,0.9-18,0.9-18.7l-1.4-8.2c0,0,8.7,11.1,18.1,11.8C163.9,175.2,161,165.9,155.1,159.7z"/>
		<path fill="#ED970F" d="M143.4,186.6c-2.6-1.2-4.2-4.5-7.4-9c-6.5-9.1-8.5-10.5-8.5-10.5c0.2,0.5-1.9,14.8-3.7,19.4
			c-1.8-3.2-4.2-8.3-4-13.6c0.4-13,23.3-16.5,25.1-16.9c0,0,4,0.4,6.8,3.4c3.8,3.9,6.5,9.6,7.5,13c-5.5-2.1-14.9-8.3-16.7-10.7
			l1.3,10.2l0,0.1C144.6,178.4,144.7,183.2,143.4,186.6z"/>
		<g>
			<defs>
				<path id="SVGID_2_" d="M161.8,116.3c-6.9-13-22.9-15.4-29.7-16.7c-0.7-1.8-1.4-3.5-2.1-5.3C117.7,65.5,89.1,35.7,81.5,39
					c0,0-0.1,0-0.1,0.1c0,0-0.1,0-0.1,0c-7.6,3.2-6.1,44.5,6.2,73.3c0.8,1.8,1.5,3.5,2.3,5.2c-3.8,5.8-13.2,19.1-8.6,33
					c5.1,15.5,11.8,22.8,12.5,17.3c0.8-5.6-0.6-20.6,3.5-23.2c3-1.9,6.5-2.3,8.1-2.4c9.1,10.7,18.6,16.1,25.4,13.2
					c0,0,0.1,0,0.1-0.1c0,0,0.1,0,0.1,0c6.8-2.9,9.5-13.5,8.1-27.5c1.2-1.1,3.8-3.3,7.3-4.1c4.7-1.2,14.6,10.2,19.2,13.6
					C170,140.6,169.4,130.7,161.8,116.3z"/>
			</defs>
			
				<radialGradient id="SVGID_3_" cx="-47.9004" cy="289.8633" r="54.5209" gradientTransform="matrix(0.9205 -0.3908 0.3908 0.9205 36.8963 -188.312)" gradientUnits="userSpaceOnUse">
				<stop  offset="5.376360e-003" style="stop-color:#FCF4FF"/>
				<stop  offset="0.9677" style="stop-color:#636D6D"/>
			</radialGradient>
			<use xlink:href="#SVGID_2_"  overflow="visible" fill="url(#SVGID_3_)"/>
			<clipPath id="SVGID_4_">
				<use xlink:href="#SVGID_2_"  overflow="visible"/>
			</clipPath>
			<radialGradient id="SVGID_5_" cx="90.8613" cy="48.1631" r="21.6111" gradientUnits="userSpaceOnUse">
				<stop  offset="5.376360e-003" style="stop-color:#F25B20"/>
				<stop  offset="0.9677" style="stop-color:#814042"/>
			</radialGradient>
			<path clip-path="url(#SVGID_4_)" fill="url(#SVGID_5_)" d="M70.3,69.7c10.4-12.5,23-19.3,40.2-16.8c10.8,1.6-34.3-26.7-34.3-26.7
				S66.7,74.2,70.3,69.7z"/>
		</g>
		<g>
			
				<radialGradient id="SVGID_6_" cx="-48.4912" cy="275.1885" r="12.6764" gradientTransform="matrix(0.9205 -0.3908 0.3908 0.9205 36.8963 -188.312)" gradientUnits="userSpaceOnUse">
				<stop  offset="5.376360e-003" style="stop-color:#D6DDDD"/>
				<stop  offset="0.9677" style="stop-color:#656F77"/>
			</radialGradient>
			<path fill="url(#SVGID_6_)" d="M89,88.5c-2.9-6.9-0.5-14.5,5.5-17.1c6-2.5,13.2,1,16.1,7.9c2.9,6.9,0.5,14.5-5.5,17.1
				C99.1,99,91.9,95.4,89,88.5z"/>
			<path fill="#FCF2F3" d="M104,93.8c-4.5,1.9-10.1-1-12.4-6.4c-2.3-5.4-0.5-11.4,4-13.3s10.1,1,12.4,6.4
				C110.3,85.9,108.5,91.9,104,93.8z"/>
		</g>
		<path opacity="0.5" fill="#FCF4FF" d="M102.5,55.3c3,3.9,29,42.7,32.7,76.2c2.6,23.1,4.4-3.4-4.8-28.9
			C121.4,78,102.5,55.3,102.5,55.3z"/>
		<path opacity="0.6" fill="#FCF4FF" d="M134.2,103.8c0,0,1.8,3.7,2.3,5.4c0,0,5.5-1.9,15,3.3c5.3,2.9,12,14.9,13.6,19.4
			c1.7,4.6-4.6-15-10.5-20.5C146.3,103.6,134.2,103.8,134.2,103.8z"/>
		<path opacity="0.6" fill="#FCF4FF" d="M90.8,121.4c0,0,1.4,3.8,2.3,5.4c0,0-5.2,2.7-8.1,13.1c-1.6,5.8,2.4,18.9,4.5,23.3
			c2.1,4.4-7.6-13.8-7.5-21.8C82.3,130,90.8,121.4,90.8,121.4z"/>
		<path opacity="0.5" fill="#FCF4FF" d="M78.3,65.6c0.7,4.9,10.6,50.5,32.1,76.4c14.8,17.9-5.5,0.8-17.4-23.6
			C81.4,95,78.3,65.6,78.3,65.6z"/>
		<g>
			<g>
				
					<radialGradient id="SVGID_7_" cx="-56.666" cy="295.9707" r="1.0693" gradientTransform="matrix(0.9205 -0.3908 0.3908 0.9205 36.8963 -188.312)" gradientUnits="userSpaceOnUse">
					<stop  offset="5.376360e-003" style="stop-color:#D6DDDD"/>
					<stop  offset="0.9677" style="stop-color:#7EA6B0"/>
				</radialGradient>
				<path fill="url(#SVGID_7_)" d="M101.4,105.9c0.2,0.6,0,1.2-0.5,1.4c-0.5,0.2-1.2,0-1.4-0.6c-0.2-0.6,0-1.2,0.5-1.4
					C100.5,105,101.1,105.3,101.4,105.9z"/>
				
					<radialGradient id="SVGID_8_" cx="-53.5176" cy="294.79" r="1.0685" gradientTransform="matrix(0.9205 -0.3908 0.3908 0.9205 36.8963 -188.312)" gradientUnits="userSpaceOnUse">
					<stop  offset="5.376360e-003" style="stop-color:#D6DDDD"/>
					<stop  offset="0.9677" style="stop-color:#7EA6B0"/>
				</radialGradient>
				<path fill="url(#SVGID_8_)" d="M103.8,103.5c0.2,0.6,0,1.2-0.5,1.4c-0.5,0.2-1.2,0-1.4-0.6c-0.2-0.6,0-1.2,0.5-1.4
					C102.9,102.7,103.6,103,103.8,103.5z"/>
				
					<radialGradient id="SVGID_9_" cx="-49.9766" cy="294.0039" r="1.0688" gradientTransform="matrix(0.9205 -0.3908 0.3908 0.9205 36.8963 -188.312)" gradientUnits="userSpaceOnUse">
					<stop  offset="5.376360e-003" style="stop-color:#D6DDDD"/>
					<stop  offset="0.9677" style="stop-color:#7EA6B0"/>
				</radialGradient>
				<path fill="url(#SVGID_9_)" d="M106.8,101.4c0.2,0.6,0,1.2-0.5,1.4s-1.2,0-1.4-0.6c-0.2-0.6,0-1.2,0.5-1.4
					C105.9,100.6,106.5,100.9,106.8,101.4z"/>
			</g>
			<g>
				
					<radialGradient id="SVGID_10_" cx="-26.8047" cy="296.5586" r="1.069" gradientTransform="matrix(-0.9205 0.3908 0.3908 0.9205 -24.5935 -162.845)" gradientUnits="userSpaceOnUse">
					<stop  offset="5.376360e-003" style="stop-color:#D6DDDD"/>
					<stop  offset="0.9677" style="stop-color:#7EA6B0"/>
				</radialGradient>
				<path fill="url(#SVGID_10_)" d="M115,100.1c0.2,0.6,0.9,0.8,1.4,0.6c0.5-0.2,0.8-0.9,0.5-1.4c-0.2-0.6-0.9-0.8-1.4-0.6
					S114.8,99.5,115,100.1z"/>
				
					<radialGradient id="SVGID_11_" cx="-23.6558" cy="295.3779" r="1.0693" gradientTransform="matrix(-0.9205 0.3908 0.3908 0.9205 -24.5935 -162.845)" gradientUnits="userSpaceOnUse">
					<stop  offset="5.376360e-003" style="stop-color:#D6DDDD"/>
					<stop  offset="0.9677" style="stop-color:#7EA6B0"/>
				</radialGradient>
				<path fill="url(#SVGID_11_)" d="M111.6,100.2c0.2,0.6,0.9,0.8,1.4,0.6c0.5-0.2,0.8-0.9,0.5-1.4c-0.2-0.6-0.9-0.8-1.4-0.6
					C111.7,99,111.4,99.7,111.6,100.2z"/>
				
					<radialGradient id="SVGID_12_" cx="-20.1143" cy="294.5908" r="1.069" gradientTransform="matrix(-0.9205 0.3908 0.3908 0.9205 -24.5935 -162.845)" gradientUnits="userSpaceOnUse">
					<stop  offset="5.376360e-003" style="stop-color:#D6DDDD"/>
					<stop  offset="0.9677" style="stop-color:#7EA6B0"/>
				</radialGradient>
				<path fill="url(#SVGID_12_)" d="M108.1,100.9c0.2,0.6,0.9,0.8,1.4,0.6s0.8-0.9,0.5-1.4c-0.2-0.6-0.9-0.8-1.4-0.6
					C108.1,99.7,107.8,100.3,108.1,100.9z"/>
			</g>
		</g>
		
			<ellipse transform="matrix(-0.9205 0.3908 -0.3908 -0.9205 259.8287 173.6391)" fill="#179989" cx="112.2" cy="113.3" rx="9.9" ry="5.7"/>
		<path fill="#22C4B4" d="M113.4,115.9c-3.9,1.7-7.2,1-7.6,0.1c-0.4-0.9,1.4-3.7,5.4-5.4c3.9-1.7,7.2-1,7.6-0.1
			S117.3,114.2,113.4,115.9z"/>
		<g>
			<defs>
				<path id="SVGID_13_" d="M138.6,141.1c0,0-4.9,5.1-11.1,7.4c-6.4,2.5-13,2.8-13,2.8c-2.4,4.5-3.2,15.1-1.7,18.6
					s14.2,1.2,22.7-2.4c8.5-3.6,19-11.2,17.5-14.7C151.6,149.4,143.5,142.5,138.6,141.1z"/>
			</defs>
			
				<radialGradient id="SVGID_14_" cx="-48.2158" cy="354.543" r="17.4668" gradientTransform="matrix(0.9205 -0.3908 0.3908 0.9205 36.8963 -188.312)" gradientUnits="userSpaceOnUse">
				<stop  offset="5.376360e-003" style="stop-color:#90A1A1"/>
				<stop  offset="0.9677" style="stop-color:#5B655B"/>
			</radialGradient>
			<use xlink:href="#SVGID_13_"  overflow="visible" fill="url(#SVGID_14_)"/>
			<clipPath id="SVGID_15_">
				<use xlink:href="#SVGID_13_"  overflow="visible"/>
			</clipPath>
			
				<radialGradient id="SVGID_16_" cx="-48.2158" cy="350.2813" r="17.4665" gradientTransform="matrix(0.9205 -0.3908 0.3908 0.9205 36.8963 -188.312)" gradientUnits="userSpaceOnUse">
				<stop  offset="5.376360e-003" style="stop-color:#D6DDDD"/>
				<stop  offset="0.9677" style="stop-color:#88888D"/>
			</radialGradient>
			<path clip-path="url(#SVGID_15_)" fill="url(#SVGID_16_)" d="M136.9,137.2c0,0-4.9,5.1-11.1,7.4c-6.4,2.5-13,2.8-13,2.8
				c-2.4,4.5-3.2,15.1-1.7,18.6c1.5,3.5,14.2,1.2,22.7-2.4c8.5-3.6,19-11.2,17.5-14.7C149.9,145.4,141.8,138.6,136.9,137.2z"/>
		</g>
	</g>
</g>
</svg>
