<?xml version="1.0" encoding="utf-8"?>
<!-- Generator: Adobe Illustrator 16.0.0, SVG Export Plug-In . SVG Version: 6.00 Build 0)  -->
<!DOCTYPE svg PUBLIC "-//W3C//DTD SVG 1.1//EN" "http://www.w3.org/Graphics/SVG/1.1/DTD/svg11.dtd">
<svg version="1.1" id="Layer_1" xmlns="http://www.w3.org/2000/svg" xmlns:xlink="http://www.w3.org/1999/xlink" x="0px" y="0px"
	 width="235px" height="235.7px" viewBox="0 0 235 235.7" enable-background="new 0 0 235 235.7" xml:space="preserve">
<g>
	<path fill="#D1AF22" stroke="#492806" stroke-miterlimit="10" d="M120.2,230.5c-61.8,0-112-50.2-112-112s50.2-112,112-112
		s112,50.2,112,112S181.9,230.5,120.2,230.5z"/>
	<g>
		
			<radialGradient id="SVGID_1_" cx="122.167" cy="166.4922" r="93.0219" gradientTransform="matrix(1 0 0 0.5805 0 69.8416)" gradientUnits="userSpaceOnUse">
			<stop  offset="5.376360e-003" style="stop-color:#924C00"/>
			<stop  offset="0.9677" style="stop-color:#EAE047"/>
		</radialGradient>
		<circle fill="url(#SVGID_1_)" cx="120.2" cy="118.5" r="102"/>
		<circle fill="none" stroke="#492806" stroke-miterlimit="10" stroke-dasharray="11.8687,11.8687" cx="120.2" cy="118.5" r="102"/>
	</g>
	<radialGradient id="SVGID_2_" cx="84.0552" cy="141.0498" r="79.4935" gradientUnits="userSpaceOnUse">
		<stop  offset="3.225810e-002" style="stop-color:#BAEC5B"/>
		<stop  offset="0.4194" style="stop-color:#74B308"/>
		<stop  offset="0.9946" style="stop-color:#4C6500"/>
	</radialGradient>
	<path fill="url(#SVGID_2_)" d="M103.7,92.4c-5.9,8.8-12.7,17.4-26.2,24.1c-19.5,9.6-29.9,31.9-8.4,58.2
		c27.4,33.5,84.7,22.3,81.1-32.6c-2.7-42.1,17-58,0.1-72.4C142.4,63,121.6,65.8,103.7,92.4z"/>
	<radialGradient id="SVGID_3_" cx="144.7197" cy="75.5645" r="5.3409" gradientUnits="userSpaceOnUse">
		<stop  offset="1.612900e-002" style="stop-color:#3B3808"/>
		<stop  offset="0.9677" style="stop-color:#4A681A"/>
	</radialGradient>
	<path fill="url(#SVGID_3_)" d="M139.5,73.7c0.9-2.7,4.1-4,7-2.9c2.9,1,4.5,4,3.5,6.7c-0.9,2.7-4.1,4-7,2.9
		C140.1,79.3,138.5,76.3,139.5,73.7z"/>
	<path fill="#542E0D" d="M169.3,48.2c2.1-1.1-4-5.7-5.6-4.8c-8.3,4.8-19.5,33.2-19.5,33.2S156.9,54.5,169.3,48.2z"/>
	<path opacity="0.2" fill="#A4D670" d="M92.5,186.6c10.5,2.9,28.7,4.5,43-11.1s9-36.1,9-46.3c0-15.7,4.8-28.6,6.4-35.2
		c1.4-5.9-8.4,21-9.6,36.1c-0.9,11,1.6,30.8-9.3,41.4C114.8,188.5,92.5,186.6,92.5,186.6z"/>
</g>
</svg>
