<?xml version="1.0" encoding="utf-8"?>
<!-- Generator: Adobe Illustrator 16.0.0, SVG Export Plug-In . SVG Version: 6.00 Build 0)  -->
<!DOCTYPE svg PUBLIC "-//W3C//DTD SVG 1.1//EN" "http://www.w3.org/Graphics/SVG/1.1/DTD/svg11.dtd">
<svg version="1.1" id="Layer_1" xmlns="http://www.w3.org/2000/svg" xmlns:xlink="http://www.w3.org/1999/xlink" x="0px" y="0px"
	 width="235px" height="235.7px" viewBox="0 0 235 235.7" enable-background="new 0 0 235 235.7" xml:space="preserve">
<g>
	<path fill="#D1AF22" stroke="#492806" stroke-miterlimit="10" d="M120.2,230.5c-61.8,0-112-50.2-112-112s50.2-112,112-112
		s112,50.2,112,112S181.9,230.5,120.2,230.5z"/>
	<g>
		
			<radialGradient id="SVGID_1_" cx="124.167" cy="162.4922" r="77.0146" gradientTransform="matrix(1 0 0 0.3386 0 107.4675)" gradientUnits="userSpaceOnUse">
			<stop  offset="5.376360e-003" style="stop-color:#924C00"/>
			<stop  offset="0.9677" style="stop-color:#EAE047"/>
		</radialGradient>
		<circle fill="url(#SVGID_1_)" cx="120.2" cy="118.5" r="102"/>
		<circle fill="none" stroke="#492806" stroke-miterlimit="10" stroke-dasharray="11.8687,11.8687" cx="120.2" cy="118.5" r="102"/>
	</g>
	<g>
		<radialGradient id="SVGID_2_" cx="158.0869" cy="130.7275" r="28.0911" gradientUnits="userSpaceOnUse">
			<stop  offset="0" style="stop-color:#6D8129"/>
			<stop  offset="1" style="stop-color:#3B5B1B"/>
		</radialGradient>
		<path fill="url(#SVGID_2_)" stroke="#456335" stroke-width="0.4087" stroke-miterlimit="10" d="M157.1,116.9
			c10.7-10.1,18.3-16.4,25.1-15.9c6.7,0.5-1.5,20.6-19,31.9c-17.6,11.3-17.6,11.3-17.6,11.3s16.1-2.7,21.9,2.1
			c5.8,4.8,13.4,8.1,13.4,8.1s-10.4,4.7-17.8,3c-7.3-1.7-10.3,3-10.3,3s-5.4-7.4-8.9-3.9c-3.6,3.5-6.9-3.4-11.3-2.6
			c-4.4,0.8,9.7-19,9.7-19L157.1,116.9z"/>
		<radialGradient id="SVGID_3_" cx="86.3545" cy="139.4131" r="28.69" gradientUnits="userSpaceOnUse">
			<stop  offset="0" style="stop-color:#6D8129"/>
			<stop  offset="1" style="stop-color:#3B5B1B"/>
		</radialGradient>
		<path fill="url(#SVGID_3_)" stroke="#456335" stroke-width="0.4087" stroke-miterlimit="10" d="M85.3,123.9
			C72.8,116,64.2,111.3,57.7,113c-6.5,1.8,5.3,19.9,24.6,27.7c19.4,7.8,19.4,7.8,19.4,7.8s-16.4,0.3-21.1,6.1
			c-4.8,5.8-11.7,10.4-11.7,10.4s11.1,2.6,18-0.4c6.9-3,10.7,1.1,10.7,1.1s3.9-8.3,8.1-5.5c4.1,2.8,6.1-4.6,10.6-4.7
			c4.5-0.1-13.1-16.8-13.1-16.8L85.3,123.9z"/>
		<path fill="none" stroke="#15280D" stroke-width="0.4087" stroke-miterlimit="10" d="M172.9,111.5c-4,0.6-26.6,22.3-29.5,31"/>
		<path fill="none" stroke="#15280D" stroke-width="0.4087" stroke-miterlimit="10" d="M65.2,120.6c9.6,3.7,17.3,5.1,37,21.4"/>
		<linearGradient id="SVGID_4_" gradientUnits="userSpaceOnUse" x1="116.3271" y1="107.8398" x2="124.1139" y2="144.4611">
			<stop  offset="0" style="stop-color:#6D8129"/>
			<stop  offset="1" style="stop-color:#3B5B1B"/>
		</linearGradient>
		<path fill="url(#SVGID_4_)" stroke="#456335" stroke-width="0.4087" stroke-miterlimit="10" d="M99.7,133.3
			c-2.9,7.3,5.6,22.8,23.6,22.3c15.3-0.4,21.1-4.1,22.2-17.7c1.6-20.1-24.9-28.9-25.7-41.8c-0.4-8.3-8.2-10.5-7.9-5.6
			C113.1,112.5,104.2,121.8,99.7,133.3z"/>
		<radialGradient id="SVGID_5_" cx="115.2407" cy="99.9805" r="24.6898" gradientUnits="userSpaceOnUse">
			<stop  offset="0" style="stop-color:#6D8129"/>
			<stop  offset="1" style="stop-color:#3B5B1B"/>
		</radialGradient>
		<path fill="url(#SVGID_5_)" stroke="#456335" stroke-width="0.4087" stroke-miterlimit="10" d="M82.7,102.3
			c12.3,4.8,26.6,11.5,34.9,10.1c8.3-1.4,22.9-12.8,29.8-22.5C154.3,80.1,82.7,102.3,82.7,102.3z"/>
		
			<radialGradient id="SVGID_6_" cx="113.4155" cy="82.6196" r="17.853" gradientTransform="matrix(0.2443 0.9697 -2.3685 0.5968 281.3872 -76.6627)" gradientUnits="userSpaceOnUse">
			<stop  offset="0" style="stop-color:#6D8129"/>
			<stop  offset="1" style="stop-color:#3B5B1B"/>
		</radialGradient>
		<path fill="url(#SVGID_6_)" stroke="#456335" stroke-width="0.4087" stroke-miterlimit="10" d="M107.4,74.7
			c-7.6,1.6-13,7-19.3,11.2c-4.9,3.3-6,4.7-11.2,6.9c-2.3,1-9.5,4.5-1.2,9.7c10.5,6.6,30.8,4.1,39.5,3.1s28.2-9,35.2-15
			c7-6,7.8-11.9,5.1-12.9c-8.1-3.1-12.1,1.5-18.5-0.6C117.6,70.9,115.4,73,107.4,74.7z"/>
		<linearGradient id="SVGID_7_" gradientUnits="userSpaceOnUse" x1="107.1235" y1="161.3203" x2="121.9621" y2="152.5176">
			<stop  offset="0" style="stop-color:#6D8129"/>
			<stop  offset="1" style="stop-color:#3B5B1B"/>
		</linearGradient>
		<path fill="url(#SVGID_7_)" d="M116.1,138.6c-1.7,2.9-1.7,12.3,2.7,20.6c4.4,8.2,7.1,12.9,7.1,12.9s-6.6-0.1-9.6-0.8
			s-3.7,10.4-3.7,10.4s-4.4-4.5-7.6-5.1c-3.2-0.6-13,3.1-11.2-0.9c1.7-4,6.1-11.4,11.8-11.7c5.8-0.3,9.1-1,5.1-7.4
			c-4-6.5,1.2-15.5-0.3-20.9L116.1,138.6z"/>
		<linearGradient id="SVGID_8_" gradientUnits="userSpaceOnUse" x1="148.9072" y1="162.3633" x2="125.4737" y2="148.6675">
			<stop  offset="0" style="stop-color:#6D8129"/>
			<stop  offset="1" style="stop-color:#3B5B1B"/>
		</linearGradient>
		<path fill="url(#SVGID_8_)" d="M131.6,137.4c2.2,2.5,4,11.8,1.3,20.7c-2.7,8.9-4.5,14-4.5,14s6.4-1.3,9.3-2.6
			c2.9-1.2,5.6,9.5,5.6,9.5s3.4-5.2,6.5-6.5c3-1.3,13.3,0.5,10.9-3.1c-2.4-3.6-8.2-10-13.9-9.2s-9.1,0.8-6.5-6.3
			c2.7-7.1-4.2-15-3.7-20.6L131.6,137.4z"/>
		<circle fill="#FFFFFF" cx="91.9" cy="79.2" r="11.5"/>
		<circle fill="#FFFFFF" cx="125" cy="72.6" r="12.9"/>
		<circle stroke="#FFFFFF" stroke-width="0.4087" stroke-miterlimit="10" cx="125" cy="70.7" r="6.9"/>
		<circle stroke="#FFFFFF" stroke-width="0.4087" stroke-miterlimit="10" cx="92.1" cy="77.1" r="6.9"/>
	</g>
</g>
</svg>
