<?xml version="1.0" encoding="utf-8"?>
<!-- Generator: Adobe Illustrator 16.0.0, SVG Export Plug-In . SVG Version: 6.00 Build 0)  -->
<!DOCTYPE svg PUBLIC "-//W3C//DTD SVG 1.1//EN" "http://www.w3.org/Graphics/SVG/1.1/DTD/svg11.dtd">
<svg version="1.1" id="Layer_1" xmlns="http://www.w3.org/2000/svg" xmlns:xlink="http://www.w3.org/1999/xlink" x="0px" y="0px"
	 width="235px" height="235.7px" viewBox="0 0 235 235.7" enable-background="new 0 0 235 235.7" xml:space="preserve">
<g>
	<path fill="#D1AF22" stroke="#492806" stroke-miterlimit="10" d="M119.8,231c-61.8,0-112-50.2-112-112S58.1,7,119.8,7
		s112,50.2,112,112S181.6,231,119.8,231z"/>
	<g>
		
			<radialGradient id="SVGID_1_" cx="117.833" cy="154.9922" r="78.4092" gradientTransform="matrix(1 0 0 0.2806 0 111.5045)" gradientUnits="userSpaceOnUse">
			<stop  offset="5.376360e-003" style="stop-color:#924C00"/>
			<stop  offset="0.9677" style="stop-color:#EAE047"/>
		</radialGradient>
		<circle fill="url(#SVGID_1_)" cx="119.8" cy="119" r="102"/>
		<circle fill="none" stroke="#492806" stroke-miterlimit="10" stroke-dasharray="11.8687,11.8687" cx="119.8" cy="119" r="102"/>
	</g>
	<radialGradient id="SVGID_2_" cx="89.6733" cy="131.5117" r="115.9821" gradientUnits="userSpaceOnUse">
		<stop  offset="1.612900e-002" style="stop-color:#D10922"/>
		<stop  offset="1" style="stop-color:#F17C00"/>
	</radialGradient>
	<path fill="url(#SVGID_2_)" d="M65.4,99.6c-6.4,0-23.2,4.5-26.1,15.4c-3.7,14.2-3.1,17-5.8,19.4c0,0-4.4,0-5.9,1.5
		c-1.1,1.1,1.3,4.8,1.3,4.8s6-0.7,19.2,0c63.9,3.2,163.4-0.8,163.4-0.8s0.2-5.3-1.6-7.1c-2-2-4.6-1-6.7-2.8
		c-5-4.4-10.9-26.3-23.9-29.2c-9.1-2-18.4-1.3-18.4-1.3s-15.3-28.7-36.2-31.2c-19.5-2.4-37.5-2.6-46.3,5.1
		C72.9,78.2,65.4,99.6,65.4,99.6z"/>
	<circle fill="#494843" cx="71.8" cy="139.9" r="22.1"/>
	<radialGradient id="SVGID_3_" cx="71.7754" cy="139.9053" r="15.7002" gradientUnits="userSpaceOnUse">
		<stop  offset="1.612900e-002" style="stop-color:#B3BDA9"/>
		<stop  offset="1" style="stop-color:#746B70"/>
	</radialGradient>
	<path fill="url(#SVGID_3_)" d="M71.8,155.6c-8.7,0-15.7-7-15.7-15.7s7-15.7,15.7-15.7c8.7,0,15.7,7,15.7,15.7
		S80.4,155.6,71.8,155.6z"/>
	<path fill="#BFBBAF" d="M71.8,149.2c-5.1,0-9.3-4.2-9.3-9.3s4.2-9.3,9.3-9.3c5.1,0,9.3,4.2,9.3,9.3S76.9,149.2,71.8,149.2z"/>
	<circle fill="#494843" cx="165.4" cy="139.9" r="22.1"/>
	<radialGradient id="SVGID_4_" cx="165.4453" cy="139.9053" r="15.7002" gradientUnits="userSpaceOnUse">
		<stop  offset="1.612900e-002" style="stop-color:#B3BDA9"/>
		<stop  offset="1" style="stop-color:#746B70"/>
	</radialGradient>
	<path fill="url(#SVGID_4_)" d="M165.4,155.6c-8.7,0-15.7-7-15.7-15.7s7-15.7,15.7-15.7c8.7,0,15.7,7,15.7,15.7
		S174.1,155.6,165.4,155.6z"/>
	<path fill="#BFBBAF" d="M165.4,149.2c-5.1,0-9.3-4.2-9.3-9.3s4.2-9.3,9.3-9.3c5.1,0,9.3,4.2,9.3,9.3S170.6,149.2,165.4,149.2z"/>
	<radialGradient id="SVGID_5_" cx="134.7598" cy="85.1826" r="18.9749" gradientUnits="userSpaceOnUse">
		<stop  offset="0" style="stop-color:#F1E7E2"/>
		<stop  offset="0.9839" style="stop-color:#7AB9BC"/>
	</radialGradient>
	<path fill="url(#SVGID_5_)" d="M157.4,99.5c0,0-7.5-14.4-21.8-24.2c-8.1-5.6-23.6-4.4-23.6-4.4v27.8L157.4,99.5z"/>
	<radialGradient id="SVGID_6_" cx="89.8706" cy="85.1563" r="16.9371" gradientUnits="userSpaceOnUse">
		<stop  offset="0" style="stop-color:#F1E7E2"/>
		<stop  offset="0.9839" style="stop-color:#7AB9BC"/>
	</radialGradient>
	<path fill="url(#SVGID_6_)" d="M109,71c0,0-24.7-2.1-30.2,7c-4.3,7.2-8.1,21.5-8.1,21.5l38.1-0.9L109,71z"/>
	
		<ellipse transform="matrix(0.9511 -0.3089 0.3089 0.9511 -28.766 66.1586)" fill="#FCF7E0" cx="194.6" cy="123.9" rx="2.5" ry="6.1"/>
	<path fill="#54270E" d="M113.8,105c0-1.3,3.7-1.8,6.9-1.7s3.7,1.4,0,1.7C117,105.3,113.8,105,113.8,105z"/>
</g>
</svg>
