<?xml version="1.0" encoding="utf-8"?>
<!-- Generator: Adobe Illustrator 16.0.0, SVG Export Plug-In . SVG Version: 6.00 Build 0)  -->
<!DOCTYPE svg PUBLIC "-//W3C//DTD SVG 1.1//EN" "http://www.w3.org/Graphics/SVG/1.1/DTD/svg11.dtd">
<svg version="1.1" id="Layer_1" xmlns="http://www.w3.org/2000/svg" xmlns:xlink="http://www.w3.org/1999/xlink" x="0px" y="0px"
	 width="235px" height="235.7px" viewBox="0 0 235 235.7" enable-background="new 0 0 235 235.7" xml:space="preserve">
<g>
	<path fill="#D1AF22" stroke="#492806" stroke-miterlimit="10" d="M120.2,231c-61.8,0-112-50.2-112-112S58.4,7,120.2,7
		s112,50.2,112,112S181.9,231,120.2,231z"/>
	<g>
		
			<radialGradient id="SVGID_1_" cx="122.167" cy="166.9922" r="80.5827" gradientTransform="matrix(1 0 0 0.4183 0 97.1469)" gradientUnits="userSpaceOnUse">
			<stop  offset="5.376360e-003" style="stop-color:#924C00"/>
			<stop  offset="0.9677" style="stop-color:#EAE047"/>
		</radialGradient>
		<circle fill="url(#SVGID_1_)" cx="120.2" cy="119" r="102"/>
		<circle fill="none" stroke="#492806" stroke-miterlimit="10" stroke-dasharray="11.8687,11.8687" cx="120.2" cy="119" r="102"/>
	</g>
	<g>
		<g>
			
				<radialGradient id="SVGID_2_" cx="141.752" cy="50.1216" r="30.6289" gradientTransform="matrix(0.9809 0.1946 -0.1946 0.9809 0.5653 6.4439)" gradientUnits="userSpaceOnUse">
				<stop  offset="1.075270e-002" style="stop-color:#56C292"/>
				<stop  offset="0.9946" style="stop-color:#60278B"/>
			</radialGradient>
			<path fill="url(#SVGID_2_)" d="M103,98.5c4.8-7.6,18.3-25.8,32.3-21.2c10.8,3.6,0.5,11.7-1.2,13.5s3.6,6.1,7.9,11
				c3.9,4.5,2,12.7,2,12.7s-12.8-10.8-27.8-14.4C107.7,97.9,103,98.5,103,98.5z"/>
			<path fill="#0DF797" d="M108.5,98.5c1.1-1.6,6.4-13.3,16-15.3c7.3-1.5-8.9,0.7-12.3,14.8c-1,4.3,4.5-7.3,11.5-9.4
				c5.3-1.6-4.1-0.4-8.9,11.1C113.8,102.2,108.5,98.5,108.5,98.5z"/>
		</g>
		<g>
			<radialGradient id="SVGID_3_" cx="172.3486" cy="121.9668" r="27.4641" gradientUnits="userSpaceOnUse">
				<stop  offset="1.075270e-002" style="stop-color:#56C292"/>
				<stop  offset="0.9946" style="stop-color:#60278B"/>
			</radialGradient>
			<path fill="url(#SVGID_3_)" d="M195.2,144.9c-1.7,0.2-10.3-1-10.7-2.5c-0.3-1.5,3.8-8-0.6-12.2c-3.1-3-6.2-6.5-11-7.9
				c4.4-1.9,7.1-5.7,9.7-8.9c3.8-4.7-1-10.7-0.8-12.2s8.7-3.7,10.3-3.7s1.5-2.8,0-3.7s-7.8-3.3-15-2s-15.7,12.7-18.2,18.2
				c-1.9,4.1-7.5,10.7-10.7,13.3c-0.4,0-0.2,2,0.4,2c3.3,1.5,9.8,7,12.1,10.8c3.1,5.2,12.8,15.5,20.1,16c7.3,0.5,13.3-2.7,14.7-3.7
				C197,147.6,196.9,144.7,195.2,144.9z"/>
		</g>
		<radialGradient id="SVGID_4_" cx="92.8447" cy="113.7949" r="47.6903" gradientUnits="userSpaceOnUse">
			<stop  offset="1.075270e-002" style="stop-color:#56C292"/>
			<stop  offset="0.9946" style="stop-color:#60278B"/>
		</radialGradient>
		<path fill="url(#SVGID_4_)" d="M78.2,109.9c-29.1,29.7,22.1,44.3,37.7,40.4c18.7-4.7,29.7-14,34.7-23.7S107.5,80,78.2,109.9z"/>
		<ellipse fill="#F4F1EF" cx="90.2" cy="122.1" rx="10.3" ry="10.2"/>
		<radialGradient id="SVGID_5_" cx="122.0449" cy="148.4141" r="21.3022" gradientUnits="userSpaceOnUse">
			<stop  offset="1.075270e-002" style="stop-color:#56C292"/>
			<stop  offset="0.9946" style="stop-color:#60278B"/>
		</radialGradient>
		<path fill="url(#SVGID_5_)" d="M111.5,141.7c0.7,2,3.3,8.7,12.2,16s14.5,7.3,20.8,7c6.3-0.3,3-3,0-4s3.9-1.7,3.6-4.3
			c-0.3-2.7-2.9-5.1-6.3-5.4c-3.3-0.3,3.7-2.6,3-5.6s-8.3,1.3-13,1.3s-13,1.7-16.3-5"/>
		<ellipse fill="#1E1815" cx="90.3" cy="120.5" rx="5.6" ry="6"/>
		<path fill="#0DF797" d="M107.5,111.3c3.3,2,11,11.6,4.6,19.7c-4.6,5.9-5.8,5.2-5.8,5.2s6.6-6.5,5.8-13.7
			C111.7,118.1,107.5,111.3,107.5,111.3z"/>
		<radialGradient id="SVGID_6_" cx="57.917" cy="88.209" r="6.5" gradientUnits="userSpaceOnUse">
			<stop  offset="1.612900e-002" style="stop-color:#DDE092"/>
			<stop  offset="0.9892" style="stop-color:#569592"/>
		</radialGradient>
		<circle fill="url(#SVGID_6_)" cx="59.4" cy="89.2" r="6.5"/>
		<radialGradient id="SVGID_7_" cx="71.7559" cy="69.3672" r="3.125" gradientUnits="userSpaceOnUse">
			<stop  offset="1.612900e-002" style="stop-color:#DDE092"/>
			<stop  offset="0.9892" style="stop-color:#569592"/>
		</radialGradient>
		<circle fill="url(#SVGID_7_)" cx="72.5" cy="70.1" r="3.1"/>
		<radialGradient id="SVGID_8_" cx="58.167" cy="61.9922" r="4.25" gradientUnits="userSpaceOnUse">
			<stop  offset="1.612900e-002" style="stop-color:#DDE092"/>
			<stop  offset="0.9892" style="stop-color:#569592"/>
		</radialGradient>
		<circle fill="url(#SVGID_8_)" cx="58.9" cy="62.7" r="4.3"/>
		<path opacity="0.5" fill="#0DF797" d="M191.7,147.4c-0.6,0.1-8,1.7-15.3-1.9c-7.8-3.8-15.8-15.9-15.8-15.9s4.6,4.2,9.6,6
			s11.9-1,8.1-0.6s-21.6-4.3-15.3-14.6c6.4-10.4,15-10.9,10.6-11.1c-4.3-0.3-9.2,4.7-11.5,7.7c-1.4,1.9-2.2,2.6-3.4,3.5
			c2.1-2.5,3.6-5.6,5.1-9.1c7-15.8,22.5-16.7,21.1-16.8c-14.9-1.1-21.1,12.1-24.4,18.3c-4.6,8.6-9.8,10.7-11.9,10.3
			c0,0-0.1,2.2,0.5,2.1c2,0.8,4.8,0.3,9.1,5.3c2,2.4,8.5,14.5,17.6,17.7C185.3,151.3,192.3,147.2,191.7,147.4z"/>
	</g>
</g>
</svg>
