<?xml version="1.0" encoding="utf-8"?>
<!-- Generator: Adobe Illustrator 16.0.0, SVG Export Plug-In . SVG Version: 6.00 Build 0)  -->
<!DOCTYPE svg PUBLIC "-//W3C//DTD SVG 1.1//EN" "http://www.w3.org/Graphics/SVG/1.1/DTD/svg11.dtd">
<svg version="1.1" id="Layer_1" xmlns="http://www.w3.org/2000/svg" xmlns:xlink="http://www.w3.org/1999/xlink" x="0px" y="0px"
	 width="235px" height="235.7px" viewBox="0 0 235 235.7" enable-background="new 0 0 235 235.7" xml:space="preserve">
<g>
	<g>
		<path fill="#D1AF22" stroke="#492806" stroke-miterlimit="10" d="M120.5,231c-61.8,0-112-50.2-112-112S58.7,7,120.5,7
			s112,50.2,112,112S182.3,231,120.5,231z"/>
		<g>
			
				<radialGradient id="SVGID_1_" cx="120.5" cy="170.9922" r="101.9999" gradientTransform="matrix(1 0 0 0.5098 0 83.8197)" gradientUnits="userSpaceOnUse">
				<stop  offset="5.376360e-003" style="stop-color:#924C00"/>
				<stop  offset="0.9677" style="stop-color:#EAE047"/>
			</radialGradient>
			<circle fill="url(#SVGID_1_)" cx="120.5" cy="119" r="102"/>
			<circle fill="none" stroke="#492806" stroke-miterlimit="10" stroke-dasharray="11.8687,11.8687" cx="120.5" cy="119" r="102"/>
		</g>
		<path fill="#542E0D" d="M143.5,60c2.7-1.4-5-7.1-7-6C126,60,112,95.7,112,95.7S128,67.8,143.5,60z"/>
		<path fill="#599E0A" d="M112.9,92.6C103,86.5,91.5,81,91,67.5S91,47,91,47s18.4,8,21.9,17C116.5,73,112.9,92.6,112.9,92.6z"/>
		<radialGradient id="SVGID_2_" cx="85.2979" cy="108.7383" r="104.8809" gradientUnits="userSpaceOnUse">
			<stop  offset="1.612900e-002" style="stop-color:#CCA954"/>
			<stop  offset="0.2527" style="stop-color:#CC4B29"/>
			<stop  offset="1" style="stop-color:#720000"/>
		</radialGradient>
		<path fill="url(#SVGID_2_)" d="M112.5,92c-9-4-52-16-57,16s15,70,57,70c60,0,84-39,69-76S112.5,92,112.5,92z"/>
	</g>
	<path opacity="0.2" fill="#F4692C" d="M173.3,97.8c11.3,14,11.4,40.4-1.4,54.7c-12.7,14.2-34.5,18.7-41.5,20s25.3-3.9,38.2-22.2
		c12.1-17.1,5.6-37.5,1.8-44.5C164.5,95,151.8,87,137.5,89.2C129.8,90.3,158.5,79.6,173.3,97.8z"/>
</g>
</svg>
