<?xml version="1.0" encoding="utf-8"?>
<!-- Generator: Adobe Illustrator 16.0.0, SVG Export Plug-In . SVG Version: 6.00 Build 0)  -->
<!DOCTYPE svg PUBLIC "-//W3C//DTD SVG 1.1//EN" "http://www.w3.org/Graphics/SVG/1.1/DTD/svg11.dtd">
<svg version="1.1" id="Layer_1" xmlns="http://www.w3.org/2000/svg" xmlns:xlink="http://www.w3.org/1999/xlink" x="0px" y="0px"
	 width="964.801px" height="416.1px" viewBox="0 0 964.801 416.1" enable-background="new 0 0 964.801 416.1" xml:space="preserve">
<path fill="#897B68" d="M943.1,347.1c0,6.7-5.5,12.2-12.2,12.2H44.4c-6.7,0-12.2-5.5-12.2-12.2l34.5-71c0-6.7,14.6-15.3,21.3-15.3
	l788.101-1c6.7,0,28.399,3.5,28.399,10.2L943.1,347.1z"/>
<path fill="#514639" d="M943.1,369.4c0,6.7-5.5,12.2-12.2,12.2H44.4c-6.7,0-12.2-5.5-12.2-12.2V352.2c0-6.7,5.5-12.2,12.2-12.2
	h886.5c6.7,0,12.2,5.5,12.2,12.2V369.4L943.1,369.4z"/>
<g>
	<path fill="#514639" d="M83,282.2c0,0,1.601-0.2,4.7-0.5c1.5-0.2,3.5-0.301,5.7-0.5c2.2-0.101,4.8-0.301,7.8-0.5
		c5.8-0.301,12.9-0.7,21-1.101c8.1-0.399,17.2-0.8,27.3-1.1c9.9-0.3,20.8-0.7,32.3-1.101c11.4-0.399,23.601-0.8,36-1
		c12.5-0.3,25.301-0.5,38.5-0.8c13-0.2,26.4-0.5,39.7-0.7c13.301-0.1,26.7-0.3,39.7-0.399c13-0.101,25.9-0.101,38.601-0.2
		c12.5-0.1,24.6,0,36,0.1c11.399,0.101,22.3,0.301,32.3,0.4c9.899,0.2,19.2,0.4,27.3,0.6c8.1,0.301,15.3,0.5,21,0.801
		c11.7,0.699,18.2,1.1,18.2,1.1s-6.7-0.2-18.2-0.5c-5.8-0.1-12.9-0.1-21-0.2c-8.1,0-17.2,0-27.3,0c-9.9,0-20.8,0.101-32.3,0.101
		c-11.4,0.1-23.601,0.199-36,0.3c-12.5,0.1-25.3,0.3-38.5,0.399c-13,0.2-26.4,0.4-39.7,0.601c-13.301,0.2-26.7,0.3-39.7,0.5
		c-13.101,0.2-25.9,0.399-38.5,0.6c-12.5,0.2-24.601,0.4-36,0.601c-11.4,0.199-22.2,0.399-32.3,0.6c-9.9,0.2-19.2,0.4-27.301,0.6
		c-8.1,0.2-15.3,0.4-21,0.601c-3,0.1-5.5,0.2-7.8,0.3c-2.2,0.1-4.2,0.1-5.8,0.3C84.6,282.1,83,282.2,83,282.2z"/>
</g>
<path fill="none" stroke="#514639" stroke-width="1.0143" stroke-miterlimit="10" d="M56.6,301.5c8.1-4.101,110.6-11.2,143-9.2"/>
<g>
	<path fill="#514639" d="M52.5,310.6c0,0,3.8-0.2,10.7-0.5c6.8-0.3,16.4-0.6,28-0.899c5.8-0.2,12-0.4,18.7-0.5
		c6.7-0.2,13.7-0.4,20.899-0.5c14.5-0.301,29.9-0.5,45.4-0.801c7.7-0.1,15.4-0.199,23.1-0.3c7.601-0.1,15.101-0.1,22.301-0.2
		c3.6,0,7.199,0,10.699-0.1c3.5,0,6.9-0.1,10.301-0.1c6.6-0.101,12.899-0.101,18.699-0.2c11.5-0.101,21.301-0.101,28.101,0
		c6.8,0.1,10.7,0.1,10.7,0.1s-3.801,0.3-10.7,0.7c-6.8,0.4-16.4,1-28,1.5c-5.8,0.3-12,0.6-18.7,0.9c-3.4,0.1-6.7,0.3-10.3,0.399
		c-3.5,0.101-7.101,0.2-10.7,0.3c-7.2,0.2-14.7,0.4-22.3,0.5C191.8,311,184.1,311.2,176.3,311.3c-7.699,0.1-15.5,0.2-23.1,0.3
		c-7.6,0.101-15.1,0-22.5,0c-7.3,0-14.3,0-20.9-0.1c-6.699,0-13-0.101-18.699-0.2c-5.801,0-11.2-0.2-15.801-0.3
		c-4.699-0.101-8.8-0.2-12.199-0.3C56.4,310.7,52.5,310.6,52.5,310.6z"/>
</g>
<g>
	<path fill="#514639" d="M46.4,328.9c0,0,0.7-0.199,2.1-0.5c0.3-0.1,0.7-0.199,1.101-0.3C50,328,50.5,328,51,327.9
		c1-0.1,2.2-0.3,3.601-0.5c2.6-0.3,5.8-0.699,9.6-1c1.9-0.199,3.8-0.3,5.8-0.5c2-0.199,4.2-0.3,6.5-0.399
		c4.601-0.3,9.4-0.601,14.7-0.8c5.2-0.2,10.7-0.5,16.4-0.601c5.699-0.1,11.5-0.3,17.5-0.399c6-0.101,12-0.101,18-0.101
		c6.1,0,12.199,0.101,18.1,0.101c6,0,11.9,0.3,17.5,0.399c5.7,0.2,11.2,0.4,16.4,0.601c5.199,0.199,10.199,0.5,14.699,0.699
		c4.601,0.301,8.7,0.601,12.4,0.801c3.6,0.199,6.9,0.6,9.6,0.8c2.601,0.2,4.7,0.399,6.101,0.6c1.399,0.101,2.1,0.2,2.1,0.2
		s-0.7,0-2.1,0c-1.4,0-3.601,0-6.2,0c-5.3,0-12.9-0.1-22-0.1c-9.2,0-19.7-0.101-31-0.101c-5.7,0-11.5,0-17.5,0s-11.9,0-18.1,0
		c-6.2,0-12,0-18,0s-11.9,0-17.5,0c-5.7,0-11.2,0-16.4,0.101c-5.2,0-10.2,0.1-14.7,0.1c-4.6,0.1-8.7,0.1-12.399,0.2
		c-3.601,0.1-6.9,0.2-9.601,0.2c-1.399,0.1-2.5,0.1-3.6,0.199c-0.5,0-1,0-1.4,0.101c-0.399,0-0.8,0.1-1.2,0.1
		C47.2,328.7,46.4,328.9,46.4,328.9z"/>
</g>
<g>
	<path fill="#514639" d="M228,318.7c0,0,0.9-0.101,2.5-0.2c0.8-0.101,1.9-0.2,3.101-0.2c1.199,0,2.6-0.1,4.199-0.1
		c3.101-0.101,6.9-0.101,11.2,0c4.3,0.1,9.2,0.1,14.5,0.3c10.7,0.3,23,0.6,36.2,1c3.3,0.1,6.7,0.2,10,0.3c3.5,0.1,6.9,0.1,10.3,0.2
		c1.7,0,3.5,0.1,5.301,0.1c1.699,0,3.6,0,5.3,0.101c3.6,0,7.1,0.1,10.5,0.1c7.1,0,14.1,0.1,21.1,0s13.8,0,20.4-0.2
		c6.6-0.2,13-0.2,19.1-0.5c3.101-0.1,6-0.2,8.8-0.3c1.4,0,2.9-0.1,4.2-0.1c1.4-0.101,2.7-0.101,4.101-0.2
		c5.3-0.3,10.199-0.5,14.5-0.7c4.199-0.3,8.1-0.5,11.199-0.7c6.2-0.4,9.7-0.6,9.7-0.6s-3.6,0.5-9.7,1.399c-3.1,0.4-6.8,1-11,1.5
		c-4.199,0.5-9.199,1-14.399,1.5c-5.3,0.601-11,0.9-17.101,1.4c-6.1,0.5-12.5,0.7-19.199,1c-1.601,0.1-3.301,0.1-5.101,0.2
		c-1.7,0-3.3,0.1-5.1,0.1c-3.5,0.1-6.9,0.2-10.3,0.2c-7,0.1-14.101,0.1-21.2,0.1c-3.601-0.1-7.101-0.1-10.7-0.2
		c-1.7,0-3.6-0.1-5.3-0.1c-1.7-0.1-3.601-0.1-5.3-0.2c-3.5-0.1-6.9-0.2-10.301-0.3c-3.5-0.2-6.8-0.3-10.199-0.5
		c-6.601-0.3-13.001-0.7-19.101-1c-6.1-0.4-11.8-0.8-17.1-1.2c-5.301-0.399-10.2-0.7-14.4-1c-2.1-0.1-4.2-0.3-6-0.399
		c-1.9-0.101-3.6-0.301-5.1-0.301c-1.5-0.1-3-0.1-4.2-0.199c-1.2-0.101-2.2,0-3.101,0C229,318.7,228,318.7,228,318.7z"/>
</g>
<g>
	<g>
		<path fill="#514639" d="M480.6,286.3c0,0,1.6-0.2,4.7-0.5c1.5-0.2,3.5-0.3,5.7-0.5c2.199-0.1,4.8-0.3,7.8-0.5
			c5.8-0.3,12.899-0.7,21-1.1c8.1-0.4,17.2-0.801,27.3-1.101c9.9-0.3,20.8-0.7,32.3-1.1c11.4-0.4,23.6-0.8,36-1
			c12.5-0.3,25.3-0.5,38.5-0.8c13-0.2,26.4-0.5,39.7-0.7c13.3-0.101,26.7-0.3,39.7-0.4c13-0.1,25.899-0.1,38.6-0.2
			c12.5-0.1,24.6,0,36,0.101c11.4,0.1,22.3,0.3,32.3,0.399c9.9,0.2,19.2,0.4,27.3,0.601c8.101,0.3,15.301,0.5,21,0.8
			c11.7,0.7,18.2,1.1,18.2,1.1s-6.7-0.2-18.2-0.5c-5.8-0.1-12.899-0.1-21-0.2c-8.1,0-17.199,0-27.3,0
			c-9.899,0-20.8,0.101-32.3,0.101c-11.4,0.1-23.6,0.2-36,0.3c-12.5,0.1-25.3,0.3-38.5,0.4c-13,0.199-26.4,0.399-39.7,0.6
			s-26.7,0.3-39.7,0.5s-25.899,0.4-38.5,0.6c-12.5,0.2-24.6,0.4-36,0.601c-11.399,0.2-22.199,0.399-32.3,0.6
			c-9.899,0.2-19.2,0.4-27.3,0.601s-15.3,0.399-21,0.6c-3,0.101-5.5,0.2-7.8,0.3c-2.2,0.101-4.2,0.101-5.8,0.3
			C482.2,286.2,480.6,286.3,480.6,286.3z"/>
	</g>
	<path fill="none" stroke="#514639" stroke-width="1.0143" stroke-miterlimit="10" d="M454.2,305.5
		c8.101-4.101,110.601-11.2,143-9.2"/>
	<g>
		<path fill="#514639" d="M450.2,314.7c0,0,3.8-0.2,10.7-0.5c6.8-0.301,16.4-0.601,28-0.9c5.8-0.2,12-0.4,18.7-0.5
			c6.7-0.2,13.7-0.4,20.9-0.5c14.5-0.3,29.899-0.5,45.399-0.8c7.7-0.101,15.4-0.2,23.101-0.3c7.6-0.101,15.1-0.101,22.3-0.2
			c3.6,0,7.2,0,10.7-0.101c3.5,0,6.899-0.1,10.3-0.1c6.6-0.1,12.899-0.1,18.7-0.2c11.5-0.1,21.3-0.1,28.1,0
			c6.8,0.101,10.7,0.101,10.7,0.101s-3.8,0.3-10.7,0.699c-6.8,0.4-16.4,1-28,1.5c-5.8,0.301-12,0.601-18.7,0.9
			c-3.4,0.1-6.7,0.3-10.3,0.4c-3.5,0.1-7.1,0.199-10.7,0.3c-7.2,0.2-14.7,0.399-22.3,0.5c-7.6,0.1-15.3,0.3-23.1,0.399
			c-7.7,0.101-15.5,0.2-23.101,0.301c-7.6,0.1-15.1,0-22.3,0c-7.3,0-14.3,0-20.9-0.101c-6.699,0-13-0.1-18.699-0.2
			c-5.801,0-11.2-0.2-15.801-0.3c-4.699-0.1-8.8-0.2-12.199-0.3C454,314.7,450.2,314.7,450.2,314.7z"/>
	</g>
	<g>
		<path fill="#514639" d="M444.1,333c0,0,0.7-0.2,2.1-0.5c0.3-0.101,0.7-0.2,1.101-0.3c0.399-0.101,0.899-0.101,1.399-0.2
			c1-0.101,2.2-0.3,3.601-0.5c2.6-0.3,5.8-0.7,9.6-1c1.9-0.2,3.8-0.3,5.8-0.5s4.2-0.3,6.5-0.4c4.601-0.3,9.4-0.6,14.7-0.8
			c5.2-0.2,10.7-0.5,16.4-0.6c5.7-0.101,11.5-0.301,17.5-0.4s12-0.1,18-0.1c6.1,0,12.2,0.1,18.1,0.1c6,0,11.9,0.3,17.5,0.4
			c5.7,0.199,11.2,0.399,16.4,0.6s10.2,0.5,14.7,0.7c4.6,0.3,8.699,0.6,12.399,0.8c3.601,0.2,6.9,0.6,9.601,0.8
			c2.6,0.2,4.699,0.4,6.1,0.601c1.4,0.1,2.1,0.199,2.1,0.199s-0.7,0-2.2,0c-1.399,0-3.6,0-6.199,0c-5.301,0-12.9-0.1-22-0.1
			c-9.2,0-19.7-0.1-31-0.1c-5.7,0-11.5,0-17.5,0s-11.9,0-18.101,0c-6.1,0-12,0-18.1,0c-6,0-11.9,0-17.5,0c-5.7,0-11.2,0-16.4,0.1
			c-5.199,0-10.199,0.1-14.699,0.1c-4.601,0.101-8.7,0.101-12.4,0.2c-3.6,0.101-6.9,0.2-9.6,0.2c-1.4,0.1-2.5,0.1-3.601,0.2
			c-0.5,0-1,0-1.399,0.1c-0.4,0-0.801,0.101-1.2,0.101C444.801,332.8,444.1,333,444.1,333z"/>
	</g>
	<g>
		<path fill="#514639" d="M625.7,322.8c0,0,0.9-0.1,2.5-0.2c0.8-0.1,1.9-0.2,3.101-0.2c1.199,0,2.6-0.1,4.199-0.1
			c3.101-0.101,6.9-0.101,11.2,0c4.3,0.1,9.2,0.1,14.5,0.3c10.7,0.3,23,0.6,36.2,1c3.3,0.1,6.7,0.2,10,0.3
			c3.5,0.101,6.9,0.101,10.3,0.2c1.7,0,3.5,0.1,5.3,0.1c1.7,0,3.601,0,5.301,0.101c3.6,0,7.1,0.1,10.5,0.1c7.1,0,14.1,0.101,21.1,0
			c7-0.1,13.8,0,20.4-0.2c6.6-0.199,13-0.199,19.1-0.5c3.1-0.1,6-0.199,8.8-0.3c1.4,0,2.9-0.1,4.2-0.1c1.4-0.101,2.7-0.101,4.1-0.2
			c5.301-0.3,10.2-0.5,14.5-0.7c4.2-0.3,8.101-0.5,11.2-0.7c6.2-0.399,9.7-0.6,9.7-0.6s-3.6,0.5-9.7,1.4c-3,0.399-6.8,1-11,1.5
			s-9.2,1-14.399,1.5c-5.301,0.6-11,0.899-17.101,1.399c-6.1,0.5-12.5,0.7-19.2,1c-1.6,0.101-3.399,0.101-5.1,0.2
			c-1.7,0-3.3,0.1-5.1,0.1c-3.5,0.101-6.9,0.2-10.301,0.2c-7,0.101-14.1,0.101-21.199,0.101c-3.601-0.101-7.101-0.101-10.7-0.2
			c-1.7,0-3.601-0.101-5.3-0.101c-1.7-0.1-3.601-0.1-5.301-0.199c-3.5-0.101-6.899-0.2-10.3-0.301c-3.399-0.1-6.8-0.3-10.2-0.5
			c-6.6-0.3-13-0.699-19.1-1c-6.1-0.399-11.8-0.8-17.1-1.199c-5.3-0.4-10.2-0.7-14.4-1c-2.1-0.101-4.2-0.301-6-0.4s-3.6-0.3-5.1-0.3
			c-1.5-0.101-3-0.101-4.2-0.2s-2.2,0-3.1,0C626.5,322.8,625.7,322.8,625.7,322.8z"/>
	</g>
</g>
<g>
	<path fill="#514639" d="M667.2,295.4c0,0,0.9-0.1,2.601-0.3c0.8-0.1,1.899-0.2,3.1-0.399c1.2-0.101,2.7-0.2,4.3-0.301
		c3.2-0.3,7.2-0.399,11.7-0.6c4.6-0.2,9.7-0.2,15.3-0.3c5.601,0,11.5-0.101,18,0c6.4,0,13.101,0.1,20,0.2
		c6.9,0.1,14.101,0.3,21.4,0.5c7.3,0.199,14.7,0.399,22.1,0.699c7.4,0.301,14.8,0.601,22.101,0.801c7.3,0.3,14.399,0.6,21.399,0.899
		c6.9,0.3,13.601,0.601,20,0.7c0.8,0,1.5,0,2.4,0h1.2h1.1c1.5,0,3-0.1,4.6-0.1c3-0.101,5.801-0.101,8.601-0.101
		c11-0.2,20.399-0.3,26.8-0.3c6.5,0,10.2,0,10.2,0s-3.601,0.3-10.2,0.8c-6.5,0.5-15.8,1.101-26.8,1.9c-2.7,0.2-5.7,0.3-8.601,0.5
		c-1.5,0.1-3.1,0.2-4.6,0.3l-1.1,0.1H851.7c-0.8,0-1.6,0-2.5,0.101c-6.399,0.1-13.1,0-20.1-0.2c-6.9-0.2-14.1-0.3-21.4-0.5
		c-7.3-0.2-14.7-0.5-22.1-0.7c-29.6-1.1-59.2-2.2-81.4-3.1c-2.7-0.101-5.5-0.2-7.899-0.2c-2.5-0.1-5-0.2-7.2-0.2
		c-4.5-0.1-8.4-0.2-11.7-0.2c-1.6,0-3.1,0-4.3,0c-1.2,0.101-2.4,0.101-3.2,0.101C668.1,295.4,667.2,295.4,667.2,295.4z"/>
</g>
<g>
	<path fill="#514639" d="M425.801,331.2c0,0-1.9,0.199-5.101,0.6c-1.6,0.2-3.6,0.4-5.8,0.5s-4.7,0.3-7.5,0.5
		c-2.7,0.2-5.8,0.3-8.9,0.4c-3.1,0.1-6.5,0.199-9.899,0.3c-3.5,0.1-7,0.1-10.7,0.2c-3.6,0-7.3,0.1-10.9,0.1c-3.6,0-7.399,0-10.899,0
		c-3.601,0-7.2-0.1-10.7-0.1c-6.9-0.101-13.3-0.2-18.9-0.4c-5.5-0.1-10.199-0.4-13.3-0.6c-3.2-0.2-5.1-0.301-5.1-0.301
		s1.899,0,5.1-0.1c3.2,0,7.8-0.1,13.3-0.2c5.5-0.1,11.9-0.1,18.9-0.2c6.9,0,14.2-0.1,21.6-0.199c7.4,0,14.7-0.101,21.601-0.101
		c3.5,0,6.8,0,9.899-0.1c3.101,0,6.2,0,8.9-0.101c2.7,0,5.3-0.1,7.5-0.1s4.2-0.101,5.8-0.2C424,331.3,425.801,331.2,425.801,331.2z"
		/>
</g>
<g>
	<path fill="#514639" d="M484,265c0,0,0.7,0,2,0.1c1.4,0.101,3.2,0.2,5.7,0.4s5.5,0.2,8.9,0.399c3.5,0.101,7.3,0.301,11.5,0.4
		s8.8,0.3,13.7,0.5c4.8,0.2,9.899,0.3,15.3,0.5c5.3,0.2,10.8,0.3,16.399,0.5c5.601,0.1,11.2,0.2,16.9,0.4
		c2.9,0.1,5.7,0.199,8.4,0.199c2.899,0,5.6,0.101,8.399,0.101c5.601,0,11,0.2,16.4,0.2c1.4,0,2.6,0,4,0.1c1.4,0,2.5,0,3.8,0
		c2.5,0,5.101,0,7.5,0c4.8,0,9.4,0,13.7,0c1,0,2.1,0,3.1,0s2-0.1,3-0.1c1.9,0,3.7-0.101,5.5-0.101c3.5-0.1,6.4-0.1,8.9-0.2
		c2.5-0.1,4.5-0.1,5.8-0.1s2,0,2,0s-0.7,0.1-2,0.2c-1.399,0.1-3.2,0.3-5.7,0.5s-5.5,0.399-8.899,0.7c-1.7,0.1-3.601,0.3-5.5,0.399
		c-1,0.101-1.9,0.101-3,0.2c-1,0-2,0.1-3.101,0.1c-4.199,0.101-8.8,0.301-13.699,0.5c-2.5,0.101-5,0.2-7.5,0.2
		c-1.4,0-2.5,0.101-3.801,0.101c-1.3,0-2.6,0-4,0c-5.3,0-10.8,0-16.399,0c-2.7,0-5.601,0-8.4,0c-2.9-0.101-5.7-0.101-8.4-0.2
		c-5.699-0.2-11.3-0.3-16.899-0.5c-5.601-0.2-11-0.5-16.4-0.7c-5.3-0.3-10.399-0.5-15.3-0.9c-4.8-0.399-9.4-0.699-13.7-1
		c-4.2-0.3-8.1-0.699-11.5-1.1c-3.5-0.4-6.399-0.6-8.8-0.9c-2.5-0.3-4.3-0.6-5.7-0.8C484.6,265.1,484,265,484,265z"/>
</g>
<linearGradient id="SVGID_11_" gradientUnits="userSpaceOnUse" x1="627.7986" y1="-934.1384" x2="872.5095" y2="-934.1384" gradientTransform="matrix(1 0 0 -1 -425.2988 -644.4995)">
	<stop  offset="0.0323" style="stop-color:#526654"/>
	<stop  offset="1" style="stop-color:#06243D"/>
</linearGradient>
<path opacity="0.6" fill="url(#SVGID_11_)" enable-background="new    " d="M407.5,284.2c-9.199-1.9-83.5-20.7-137.5-16.101
	c-37.1,3.101-67.5,7.7-67.5,17.101c0,9.399,26.7,18.6,64,18.6c12.3,0,35.4,0.4,45.301-1c13.6,6.3,34.199,8.3,40.8,9.1
	c0,0,44.899-1.5,80.899-4.199C469.7,304.9,424.7,287.9,407.5,284.2z"/>
<g>
	<path fill="#514639" d="M928.9,327.9c0,0-1.2-0.199-3.2-0.5c-1-0.1-2.2-0.199-3.7-0.399c-1.399-0.101-3.1-0.2-4.8-0.3
		c-1.899-0.101-3.6-0.2-5.8-0.2c-2-0.101-4.2-0.101-6.4-0.2c-2.199-0.1-4.6,0-6.899-0.1c-2.4,0-4.7,0-7.101,0
		c-2.399,0-4.699,0-7.1,0.1s-4.7,0.1-6.9,0.2c-2.199,0.1-4.3,0.2-6.399,0.3c-2,0.1-4,0.3-5.8,0.4c-1.7,0.1-3.5,0.3-4.801,0.399
		c-1.399,0.2-2.699,0.3-3.699,0.4c-2,0.3-3.2,0.5-3.2,0.5s1.1-0.3,3.1-0.9c1-0.2,2.2-0.5,3.601-0.8c1.399-0.3,3.1-0.5,4.8-0.8
		c1.7-0.2,3.6-0.5,5.8-0.7c2-0.2,4.2-0.4,6.4-0.6c2.199-0.2,4.6-0.301,6.899-0.4c2.4-0.1,4.7-0.1,7.101-0.2c2.5,0,4.699,0,7.1,0
		s4.7,0.101,6.9,0.2c2.199,0.1,4.3,0.3,6.399,0.4c2,0.1,4,0.399,5.8,0.6c1.9,0.2,3.5,0.5,4.801,0.7c1.399,0.3,2.6,0.5,3.699,0.8
		c1,0.3,1.9,0.5,2.4,0.7C928.6,327.8,928.9,327.9,928.9,327.9z"/>
</g>
<g>
	<path fill="#514639" d="M887,267c0,0-2.399,0.2-6.399,0.399c-4.101,0.301-9.9,0.601-17,0.9c-3.601,0.2-7.3,0.3-11.4,0.5
		c-4.1,0.2-8.3,0.3-12.7,0.5c-4.3,0.1-8.899,0.3-13.6,0.4c-4.7,0.1-9.3,0.199-14,0.3c-4.7,0.1-9.4,0.1-14,0.2
		c-4.7,0.1-9.2,0.1-13.6,0.1c-4.301,0-8.601,0-12.7,0c-4.101,0-7.8-0.1-11.4-0.2c-3.6-0.1-6.8-0.2-9.7-0.3
		c-2.899-0.1-5.3-0.3-7.399-0.4C739,269.1,736.7,269,736.7,269s2.4,0,6.5,0.1c2,0,4.601,0.101,7.4,0.101
		c2.899,0,6.1-0.101,9.7-0.101c3.6-0.1,7.3,0,11.399-0.1c4.101-0.101,8.3-0.2,12.7-0.2c8.8-0.2,18.1-0.4,27.6-0.5
		c9.301-0.2,18.7-0.3,27.601-0.5c8.8-0.1,17-0.3,24.1-0.4c7-0.1,12.9-0.1,17-0.199C884.7,267,887,267,887,267z"/>
</g>
<g>
	<path fill="#514639" d="M747.7,309.6c0,0,2.2,0,6.101,0.101c1,0,2,0,3.199,0.1c1.101,0,2.5,0,3.7,0c2.7,0,5.7,0,9.101-0.1
		c6.6,0,14.3-0.101,22.6-0.101c4.2,0,8.4,0,12.8,0c4.4,0,8.7,0,13.2,0s8.8,0.101,13.2,0.101c4.3,0.1,8.6,0.1,12.8,0.199
		c4.2,0.101,8.1,0.2,11.9,0.2C860,310.2,863.7,310.3,867,310.4c3.4,0.101,6.4,0.2,9.101,0.4c1.399,0.1,2.6,0.1,3.7,0.2
		c1.1,0.1,2.199,0.2,3.199,0.2c3.801,0.3,6.101,0.5,6.101,0.5s-2.2,0-6.101-0.101c-1,0-2-0.1-3.1-0.1s-2.5,0-3.7,0
		c-2.7,0-5.7,0-9.1,0c-6.6,0-14.4,0.1-22.6,0.1c-4.2,0-8.4,0-12.801,0c-4.3,0-8.699,0-13.199,0s-8.801-0.1-13.2-0.1
		c-4.3-0.101-8.601-0.101-12.8-0.2c-4.2-0.1-8.101-0.2-11.9-0.2c-3.7-0.1-7.4-0.2-10.8-0.3c-3.4-0.1-6.4-0.2-9.101-0.3
		c-1.399-0.101-2.6-0.101-3.699-0.2c-1.101-0.1-2.2-0.2-3.101-0.2C749.9,309.8,747.7,309.6,747.7,309.6z"/>
</g>
<rect x="62.7" y="362.4" fill="#514639" width="34.5" height="53.7"/>
<rect x="871.1" y="362.4" fill="#514639" width="34.5" height="53.7"/>
<linearGradient id="SVGID_12_" gradientUnits="userSpaceOnUse" x1="645.0203" y1="720.5208" x2="733.6199" y2="720.5208" gradientTransform="matrix(1 0 0 1 -170.1201 -426.0205)">
	<stop  offset="0.0323" style="stop-color:#AE566F"/>
	<stop  offset="1" style="stop-color:#3D006A"/>
</linearGradient>
<ellipse opacity="0.5" fill="url(#SVGID_12_)" enable-background="new    " cx="519.2" cy="294.5" rx="44.3" ry="12"/>
<g>
	<g>
		
			<linearGradient id="SVGID_13_" gradientUnits="userSpaceOnUse" x1="1115.1062" y1="-1252.6643" x2="1114.1772" y2="-1353.7319" gradientTransform="matrix(1 0 0 -1 -595.4199 -1061.4194)">
			<stop  offset="0.0323" style="stop-color:#ECF1D6"/>
			<stop  offset="0.5806" style="stop-color:#F1D8BD"/>
			<stop  offset="0.9876" style="stop-color:#FF15D2"/>
		</linearGradient>
		<path id="SVGID_8_" fill="url(#SVGID_13_)" d="M534.7,214.4l0.5-19c0.5-0.5,5.4,0.5,6.7-1.8c2.5-4.399,1-9.5,0-10.5
			c-1.3-2.5-10.6-6.8-23-6.8c-13.3,0-22.5,0.7-23.2,6.8c-0.1,0.101-2.3,7.101-0.6,8.601c1.399,1.3,8.1,3.8,8.1,3.8
			c-0.2,0,1,5.7,0.3,11.2l-1,7.699C482.801,220,469.1,235.9,469.1,255c0,23.5,23,42.6,50.5,42.6s49.5-19,49.5-42.6
			C569.301,236,555.4,220.1,534.7,214.4z"/>
	</g>
	<g>
		<g>
			<g>
				<g>
					<g>
						<g>
							<g>
								<defs>
									<path id="SVGID_14_" d="M534.7,214.1l0.5-19c0.5-0.5,5.4,0.5,6.7-1.899c2.5-4.4,1-9.5,0-10.5c-1.3-2.5-10.3-5.5-22.8-5.5
										c-13.3,0-18.6,0.6-23.4,5.5c-0.1,0.1-0.6,7.399-0.6,8.6c0,2.7,8.1,3.8,8.1,3.8c-0.199,0-0.699,0-0.699,1v18
										c-19.7,5.5-33.4,21.5-33.4,40.601c0,23.5,23,42.6,50.5,42.6s49.5-19,49.5-42.6C569.301,235.6,555.5,219.8,534.7,214.1z"/>
								</defs>
								<clipPath id="SVGID_15_">
									<use xlink:href="#SVGID_14_"  overflow="visible"/>
								</clipPath>
								
									<ellipse clip-path="url(#SVGID_15_)" fill="#D880C4" stroke="#9171BF" stroke-width="0.9011" stroke-miterlimit="10" cx="518.7" cy="253" rx="49.9" ry="7.4"/>
							</g>
						</g>
					</g>
				</g>
			</g>
		</g>
	</g>
	<g>
		<g>
			<g>
				<g>
					<g>
						<g>
							<g>
								<defs>
									<path id="SVGID_16_" d="M534.7,214.1l0.5-19c0.5-0.5,5.4,0.5,6.7-1.899c2.5-4.4,1-9.5,0-10.5c-1.3-2.5-10.3-5.5-22.8-5.5
										c-13.3,0-18.6,0.6-23.4,5.5c-0.1,0.1-0.6,7.399-0.6,8.6c0,2.7,8.1,3.8,8.1,3.8c-0.199,0-0.699,0-0.699,1v18
										c-19.7,5.5-33.4,21.5-33.4,40.601c0,23.5,23,42.6,50.5,42.6s49.5-19,49.5-42.6C569.301,235.6,555.5,219.8,534.7,214.1z"/>
								</defs>
								<clipPath id="SVGID_17_">
									<use xlink:href="#SVGID_16_"  overflow="visible"/>
								</clipPath>
								<path clip-path="url(#SVGID_17_)" fill="#94759B" d="M521,179.2c13.101,0,17.301,2.1,16.601,5.5
									c-0.3,1.399-5,3.6-18.101,3.6c-13.1,0-19.5-3.8-19.5-5.6C499.9,179.2,507.9,179.2,521,179.2z"/>
							</g>
						</g>
					</g>
				</g>
			</g>
		</g>
	</g>
	<g>
		<path id="SVGID_7_" fill="none" stroke="#826782" stroke-width="1.0357" stroke-miterlimit="10" d="M534.9,215.4
			c0,0-1.7-13.6,0.3-19.899c0.3-0.8,5.5,0.1,6.8-2.3c2.5-4.4,1-9.5,0-10.5c-1.3-2.5-10.3-5.5-22.8-5.5
			c-13.3,0-18.899,0.399-23.399,3.899c-2.5,4.3-1.7,8.2-0.601,10.3c1.3,2.4,7.3,1.7,8.101,3.801c1.399,3.8-0.7,19-0.7,19
			c-19.7,5.5-33.4,21.5-33.4,40.5c0,23.5,23,42.6,50.5,42.6s49.5-19,49.5-42.6C569.301,235.6,555.6,220.8,534.9,215.4z"/>
	</g>
</g>
<path opacity="0.5" fill="#FFFFFF" enable-background="new    " d="M505.4,218.3c-7.2,2.1-31,14.9-29.7,35.6
	c1.4,20.801,15.9,37.601,45.601,37.301C529.5,291.1,485.7,284.3,484,258.4C482.1,230.3,505.4,218.3,505.4,218.3z"/>
<path opacity="0.2" fill="#457C52" enable-background="new    " d="M532.4,196c-1.7,0.5-12.3,2.5-24-0.3
	c-5.3-1.301,0.3,2.899,4.2,3.8c4.2,1,10.7,0.7,13.5,3.5c1.4,1.3,1.2,12.899,1.2,12.899s-1.7,1.7-5.5,1.7s-10.2,1-12.601,2.5
	c-2.5,1.4,13.4-1.3,28.2,2.8c15,4.2,22.6,15,22.6,15s-8.399-13.199-22.8-18.8c-4.899-1.8-4.899-1.7-5-2.5
	C530.6,207.3,532.4,196,532.4,196z"/>
<g>
	<g>
		
			<linearGradient id="SVGID_18_" gradientUnits="userSpaceOnUse" x1="928.825" y1="-813.2048" x2="959.6929" y2="-813.2048" gradientTransform="matrix(1 0 0 -1 -425.2988 -644.4995)">
			<stop  offset="0.0323" style="stop-color:#F4E08E"/>
			<stop  offset="1" style="stop-color:#BD8172"/>
		</linearGradient>
		<path id="SVGID_5_" fill="url(#SVGID_18_)" d="M506.1,182.5c0,0,5.5,2.7,12.3,2.899c8.6,0.2,13.1-2.399,13.1-2.399
			s-2.5-8.2,2.9-26.601c0.6-3.199-6.1-4.199-15.4-4.399c-13.1,0-15.399,5.5-15.399,5.5s1.7,2.399,3.6,13.5
			C508.301,180.8,506.1,182.5,506.1,182.5z"/>
	</g>
	<g>
		<g>
			<g>
				<g>
					<g>
						<defs>
							<path id="SVGID_19_" d="M506.2,182.5c0,0,5.3,2.899,12,2.899s13.2-2.5,13.2-2.5s-1.2-11.199,2.9-26.399
								c0.6-3.2-6.101-4.2-15.4-4.4c-13.1,0-15.399,5.5-15.399,5.5s1.399,3.2,3.3,14.2C508.6,182.8,506.2,182.5,506.2,182.5z"/>
						</defs>
						<clipPath id="SVGID_20_">
							<use xlink:href="#SVGID_19_"  overflow="visible"/>
						</clipPath>
					</g>
					<g>
						<defs>
							<path id="SVGID_21_" d="M506.2,182.5c0,0,5.3,2.899,12,2.899s13.2-2.5,13.2-2.5s-1.2-11.199,2.9-26.399
								c0.6-3.2-6.101-4.2-15.4-4.4c-13.1,0-15.399,5.5-15.399,5.5s1.399,3.2,3.3,14.2C508.6,182.8,506.2,182.5,506.2,182.5z"/>
						</defs>
						<defs>
							<path id="SVGID_22_" d="M506.1,182.5c0,0,5.5,2.7,12.3,2.899c8.6,0.2,13.1-2.399,13.1-2.399s-2.5-8.2,2.9-26.601
								c0.6-3.199-6.1-4.199-15.4-4.399c-13.1,0-15.399,5.5-15.399,5.5s1.7,2.399,3.6,13.5C508.301,180.8,506.1,182.5,506.1,182.5z"
								/>
						</defs>
						<clipPath id="SVGID_23_">
							<use xlink:href="#SVGID_21_"  overflow="visible"/>
						</clipPath>
						<clipPath id="SVGID_24_" clip-path="url(#SVGID_23_)">
							<use xlink:href="#SVGID_22_"  overflow="visible"/>
						</clipPath>
						<ellipse clip-path="url(#SVGID_24_)" fill="#AD9773" cx="529.4" cy="167.5" rx="3.5" ry="3.2"/>
					</g>
				</g>
			</g>
		</g>
	</g>
	<g>
		<g>
			<g>
				<g>
					<g>
						<defs>
							<path id="SVGID_25_" d="M506.2,182.5c0,0,5.3,2.899,12,2.899s13.2-2.5,13.2-2.5s-1.2-11.199,2.9-26.399
								c0.6-3.2-6.101-4.2-15.4-4.4c-13.1,0-15.399,5.5-15.399,5.5s1.399,3.2,3.3,14.2C508.6,182.8,506.2,182.5,506.2,182.5z"/>
						</defs>
						<clipPath id="SVGID_26_">
							<use xlink:href="#SVGID_25_"  overflow="visible"/>
						</clipPath>
					</g>
					<g>
						<defs>
							<path id="SVGID_27_" d="M506.2,182.5c0,0,5.3,2.899,12,2.899s13.2-2.5,13.2-2.5s-1.2-11.199,2.9-26.399
								c0.6-3.2-6.101-4.2-15.4-4.4c-13.1,0-15.399,5.5-15.399,5.5s1.399,3.2,3.3,14.2C508.6,182.8,506.2,182.5,506.2,182.5z"/>
						</defs>
						<defs>
							<path id="SVGID_28_" d="M506.1,182.5c0,0,5.5,2.7,12.3,2.899c8.6,0.2,13.1-2.399,13.1-2.399s-2.5-8.2,2.9-26.601
								c0.6-3.199-6.1-4.199-15.4-4.399c-13.1,0-15.399,5.5-15.399,5.5s1.7,2.399,3.6,13.5C508.301,180.8,506.1,182.5,506.1,182.5z"
								/>
						</defs>
						<clipPath id="SVGID_29_">
							<use xlink:href="#SVGID_27_"  overflow="visible"/>
						</clipPath>
						<clipPath id="SVGID_30_" clip-path="url(#SVGID_29_)">
							<use xlink:href="#SVGID_28_"  overflow="visible"/>
						</clipPath>
						<ellipse clip-path="url(#SVGID_30_)" fill="#AD9773" cx="510.301" cy="166.9" rx="1.8" ry="2.1"/>
					</g>
				</g>
			</g>
		</g>
	</g>
	<g>
		<g>
			<g>
				<g>
					<g>
						<defs>
							<path id="SVGID_31_" d="M506.2,182.5c0,0,5.3,2.899,12,2.899s13.2-2.5,13.2-2.5s-1.2-11.199,2.9-26.399
								c0.6-3.2-6.101-4.2-15.4-4.4c-13.1,0-15.399,5.5-15.399,5.5s1.399,3.2,3.3,14.2C508.6,182.8,506.2,182.5,506.2,182.5z"/>
						</defs>
						<clipPath id="SVGID_32_">
							<use xlink:href="#SVGID_31_"  overflow="visible"/>
						</clipPath>
					</g>
					<g>
						<defs>
							<path id="SVGID_33_" d="M506.2,182.5c0,0,5.3,2.899,12,2.899s13.2-2.5,13.2-2.5s-1.2-11.199,2.9-26.399
								c0.6-3.2-6.101-4.2-15.4-4.4c-13.1,0-15.399,5.5-15.399,5.5s1.399,3.2,3.3,14.2C508.6,182.8,506.2,182.5,506.2,182.5z"/>
						</defs>
						<defs>
							<path id="SVGID_34_" d="M506.1,182.5c0,0,5.5,2.7,12.3,2.899c8.6,0.2,13.1-2.399,13.1-2.399s-2.5-8.2,2.9-26.601
								c0.6-3.199-6.1-4.199-15.4-4.399c-13.1,0-15.399,5.5-15.399,5.5s1.7,2.399,3.6,13.5C508.301,180.8,506.1,182.5,506.1,182.5z"
								/>
						</defs>
						<clipPath id="SVGID_35_">
							<use xlink:href="#SVGID_33_"  overflow="visible"/>
						</clipPath>
						<clipPath id="SVGID_36_" clip-path="url(#SVGID_35_)">
							<use xlink:href="#SVGID_34_"  overflow="visible"/>
						</clipPath>
						<ellipse clip-path="url(#SVGID_36_)" fill="#AD9773" cx="521.6" cy="178.8" rx="3.2" ry="2.7"/>
					</g>
				</g>
			</g>
		</g>
	</g>
	<g>
		<g>
			<g>
				<g>
					<g>
						<defs>
							<path id="SVGID_37_" d="M506.2,182.5c0,0,5.3,2.899,12,2.899s13.2-2.5,13.2-2.5s-1.2-11.199,2.9-26.399
								c0.6-3.2-6.101-4.2-15.4-4.4c-13.1,0-15.399,5.5-15.399,5.5s1.399,3.2,3.3,14.2C508.6,182.8,506.2,182.5,506.2,182.5z"/>
						</defs>
						<clipPath id="SVGID_38_">
							<use xlink:href="#SVGID_37_"  overflow="visible"/>
						</clipPath>
					</g>
					<g>
						<defs>
							<path id="SVGID_39_" d="M506.2,182.5c0,0,5.3,2.899,12,2.899s13.2-2.5,13.2-2.5s-1.2-11.199,2.9-26.399
								c0.6-3.2-6.101-4.2-15.4-4.4c-13.1,0-15.399,5.5-15.399,5.5s1.399,3.2,3.3,14.2C508.6,182.8,506.2,182.5,506.2,182.5z"/>
						</defs>
						<defs>
							<path id="SVGID_40_" d="M506.1,182.5c0,0,5.5,2.7,12.3,2.899c8.6,0.2,13.1-2.399,13.1-2.399s-2.5-8.2,2.9-26.601
								c0.6-3.199-6.1-4.199-15.4-4.399c-13.1,0-15.399,5.5-15.399,5.5s1.7,2.399,3.6,13.5C508.301,180.8,506.1,182.5,506.1,182.5z"
								/>
						</defs>
						<clipPath id="SVGID_41_">
							<use xlink:href="#SVGID_39_"  overflow="visible"/>
						</clipPath>
						<clipPath id="SVGID_42_" clip-path="url(#SVGID_41_)">
							<use xlink:href="#SVGID_40_"  overflow="visible"/>
						</clipPath>
						<circle clip-path="url(#SVGID_42_)" fill="#AD9773" cx="518.7" cy="162.1" r="2.5"/>
					</g>
				</g>
			</g>
		</g>
	</g>
	<g>
		<g>
			<g>
				<g>
					<g>
						<defs>
							<path id="SVGID_43_" d="M506.2,182.5c0,0,5.3,2.899,12,2.899s13.2-2.5,13.2-2.5s-1.2-11.199,2.9-26.399
								c0.6-3.2-6.101-4.2-15.4-4.4c-13.1,0-15.399,5.5-15.399,5.5s1.399,3.2,3.3,14.2C508.6,182.8,506.2,182.5,506.2,182.5z"/>
						</defs>
						<clipPath id="SVGID_44_">
							<use xlink:href="#SVGID_43_"  overflow="visible"/>
						</clipPath>
					</g>
					<g>
						<defs>
							<path id="SVGID_45_" d="M506.2,182.5c0,0,5.3,2.899,12,2.899s13.2-2.5,13.2-2.5s-1.2-11.199,2.9-26.399
								c0.6-3.2-6.101-4.2-15.4-4.4c-13.1,0-15.399,5.5-15.399,5.5s1.399,3.2,3.3,14.2C508.6,182.8,506.2,182.5,506.2,182.5z"/>
						</defs>
						<defs>
							<path id="SVGID_46_" d="M506.1,182.5c0,0,5.5,2.7,12.3,2.899c8.6,0.2,13.1-2.399,13.1-2.399s-2.5-8.2,2.9-26.601
								c0.6-3.199-6.1-4.199-15.4-4.399c-13.1,0-15.399,5.5-15.399,5.5s1.7,2.399,3.6,13.5C508.301,180.8,506.1,182.5,506.1,182.5z"
								/>
						</defs>
						<clipPath id="SVGID_47_">
							<use xlink:href="#SVGID_45_"  overflow="visible"/>
						</clipPath>
						<clipPath id="SVGID_48_" clip-path="url(#SVGID_47_)">
							<use xlink:href="#SVGID_46_"  overflow="visible"/>
						</clipPath>
						<circle clip-path="url(#SVGID_48_)" fill="#AD9773" cx="518.4" cy="170.5" r="1.7"/>
					</g>
				</g>
			</g>
		</g>
	</g>
	<g>
		<g>
			<g>
				<g>
					<g>
						<defs>
							<path id="SVGID_49_" d="M506.2,182.5c0,0,5.3,2.899,12,2.899s13.2-2.5,13.2-2.5s-1.2-11.199,2.9-26.399
								c0.6-3.2-6.101-4.2-15.4-4.4c-13.1,0-15.399,5.5-15.399,5.5s1.399,3.2,3.3,14.2C508.6,182.8,506.2,182.5,506.2,182.5z"/>
						</defs>
						<clipPath id="SVGID_50_">
							<use xlink:href="#SVGID_49_"  overflow="visible"/>
						</clipPath>
					</g>
					<g>
						<defs>
							<path id="SVGID_51_" d="M506.2,182.5c0,0,5.3,2.899,12,2.899s13.2-2.5,13.2-2.5s-1.2-11.199,2.9-26.399
								c0.6-3.2-6.101-4.2-15.4-4.4c-13.1,0-15.399,5.5-15.399,5.5s1.399,3.2,3.3,14.2C508.6,182.8,506.2,182.5,506.2,182.5z"/>
						</defs>
						<defs>
							<path id="SVGID_52_" d="M506.1,182.5c0,0,5.5,2.7,12.3,2.899c8.6,0.2,13.1-2.399,13.1-2.399s-2.5-8.2,2.9-26.601
								c0.6-3.199-6.1-4.199-15.4-4.399c-13.1,0-15.399,5.5-15.399,5.5s1.7,2.399,3.6,13.5C508.301,180.8,506.1,182.5,506.1,182.5z"
								/>
						</defs>
						<clipPath id="SVGID_53_">
							<use xlink:href="#SVGID_51_"  overflow="visible"/>
						</clipPath>
						<clipPath id="SVGID_54_" clip-path="url(#SVGID_53_)">
							<use xlink:href="#SVGID_52_"  overflow="visible"/>
						</clipPath>
						<ellipse clip-path="url(#SVGID_54_)" fill="#AD9773" cx="509.4" cy="176.8" rx="2.5" ry="2.9"/>
					</g>
				</g>
			</g>
		</g>
	</g>
	<g>
		<g>
			<g>
				<g>
					<g>
						<defs>
							<path id="SVGID_55_" d="M506.2,182.5c0,0,5.3,2.899,12,2.899s13.2-2.5,13.2-2.5s-1.2-11.199,2.9-26.399
								c0.6-3.2-6.101-4.2-15.4-4.4c-13.1,0-15.399,5.5-15.399,5.5s1.399,3.2,3.3,14.2C508.6,182.8,506.2,182.5,506.2,182.5z"/>
						</defs>
						<clipPath id="SVGID_56_">
							<use xlink:href="#SVGID_55_"  overflow="visible"/>
						</clipPath>
					</g>
					<g>
						<defs>
							<path id="SVGID_57_" d="M506.2,182.5c0,0,5.3,2.899,12,2.899s13.2-2.5,13.2-2.5s-1.2-11.199,2.9-26.399
								c0.6-3.2-6.101-4.2-15.4-4.4c-13.1,0-15.399,5.5-15.399,5.5s1.399,3.2,3.3,14.2C508.6,182.8,506.2,182.5,506.2,182.5z"/>
						</defs>
						<defs>
							<path id="SVGID_58_" d="M506.1,182.5c0,0,5.5,2.7,12.3,2.899c8.6,0.2,13.1-2.399,13.1-2.399s-2.5-8.2,2.9-26.601
								c0.6-3.199-6.1-4.199-15.4-4.399c-13.1,0-15.399,5.5-15.399,5.5s1.7,2.399,3.6,13.5C508.301,180.8,506.1,182.5,506.1,182.5z"
								/>
						</defs>
						<clipPath id="SVGID_59_">
							<use xlink:href="#SVGID_57_"  overflow="visible"/>
						</clipPath>
						<clipPath id="SVGID_60_" clip-path="url(#SVGID_59_)">
							<use xlink:href="#SVGID_58_"  overflow="visible"/>
						</clipPath>
						<ellipse clip-path="url(#SVGID_60_)" fill="#AD9773" cx="530.9" cy="181.2" rx="2.2" ry="2.4"/>
					</g>
				</g>
			</g>
		</g>
	</g>
	<g>
		<g>
			<g>
				<g>
					<g>
						<defs>
							<path id="SVGID_61_" d="M506.2,182.5c0,0,5.3,2.899,12,2.899s13.2-2.5,13.2-2.5s-1.2-11.199,2.9-26.399
								c0.6-3.2-6.101-4.2-15.4-4.4c-13.1,0-15.399,5.5-15.399,5.5s1.399,3.2,3.3,14.2C508.6,182.8,506.2,182.5,506.2,182.5z"/>
						</defs>
						<clipPath id="SVGID_62_">
							<use xlink:href="#SVGID_61_"  overflow="visible"/>
						</clipPath>
					</g>
					<g>
						<defs>
							<path id="SVGID_63_" d="M506.2,182.5c0,0,5.3,2.899,12,2.899s13.2-2.5,13.2-2.5s-1.2-11.199,2.9-26.399
								c0.6-3.2-6.101-4.2-15.4-4.4c-13.1,0-15.399,5.5-15.399,5.5s1.399,3.2,3.3,14.2C508.6,182.8,506.2,182.5,506.2,182.5z"/>
						</defs>
						<defs>
							<path id="SVGID_64_" d="M506.1,182.5c0,0,5.5,2.7,12.3,2.899c8.6,0.2,13.1-2.399,13.1-2.399s-2.5-8.2,2.9-26.601
								c0.6-3.199-6.1-4.199-15.4-4.399c-13.1,0-15.399,5.5-15.399,5.5s1.7,2.399,3.6,13.5C508.301,180.8,506.1,182.5,506.1,182.5z"
								/>
						</defs>
						<clipPath id="SVGID_65_">
							<use xlink:href="#SVGID_63_"  overflow="visible"/>
						</clipPath>
						<clipPath id="SVGID_66_" clip-path="url(#SVGID_65_)">
							<use xlink:href="#SVGID_64_"  overflow="visible"/>
						</clipPath>
						
							<ellipse clip-path="url(#SVGID_66_)" fill="#77624A" stroke="#7C6E50" stroke-width="0.4536" stroke-miterlimit="10" cx="519" cy="154.5" rx="17.101" ry="6.7"/>
					</g>
				</g>
			</g>
		</g>
	</g>
	<g>
		<path id="SVGID_2_" fill="none" stroke="#7C6E50" stroke-width="0.6212" stroke-miterlimit="10" d="M506.1,182.5
			c0,0,5.5,2.7,12.3,2.899c8.6,0.2,13.1-2.399,13.1-2.399s-2.5-8.2,2.9-26.601c0.6-3.199-6.1-4.199-15.4-4.399
			c-13.1,0-15.399,5.5-15.399,5.5s1.7,2.399,3.6,13.5C508.301,180.8,506.1,182.5,506.1,182.5z"/>
	</g>
</g>
<ellipse fill="#F9F9F9" stroke="#C9C1D6" stroke-width="0.9011" stroke-miterlimit="10" cx="517.301" cy="238.7" rx="3.1" ry="3.4"/>
<circle fill="#F9F9F9" stroke="#C9C1D6" stroke-width="0.9011" stroke-miterlimit="10" cx="501.301" cy="239.4" r="6.4"/>
<circle fill="#F9F9F9" stroke="#C9C1D6" stroke-width="0.9011" stroke-miterlimit="10" cx="524" cy="224.9" r="2.9"/>
<circle fill="#F9F9F9" stroke="#C9C1D6" stroke-width="0.9011" stroke-miterlimit="10" cx="537.4" cy="246.3" r="5"/>
<circle fill="#F9F9F9" stroke="#C9C1D6" stroke-width="0.9011" stroke-miterlimit="10" cx="514.301" cy="251.4" r="3.4"/>
<circle fill="#F9F9F9" stroke="#C9C1D6" stroke-width="0.9011" stroke-miterlimit="10" cx="532.7" cy="231.1" r="2"/>
<circle fill="#F9F9F9" stroke="#C9C1D6" stroke-width="0.9011" stroke-miterlimit="10" cx="499" cy="222.7" r="2.6"/>
<g>
	<path fill="#514639" d="M224.8,293.9c0,0,3.801-0.199,10.7-0.5c6.8-0.3,16.4-0.6,28-0.899c5.8-0.2,12-0.4,18.7-0.5
		c6.7-0.2,13.7-0.4,20.9-0.5c14.5-0.3,29.899-0.5,45.399-0.8c7.7-0.101,15.4-0.2,23.101-0.301c7.6-0.1,15.1-0.1,22.3-0.199
		c3.6,0,7.2,0,10.7-0.101c3.5,0,6.899-0.1,10.3-0.1c6.6-0.101,12.9-0.101,18.7-0.2c11.5-0.1,21.3-0.1,28.1,0
		c6.801,0.1,10.7,0.1,10.7,0.1s-3.8,0.301-10.7,0.7c-6.8,0.4-16.399,1-28,1.5c-5.8,0.3-12,0.601-18.7,0.9
		c-3.399,0.1-6.699,0.3-10.3,0.399c-3.5,0.101-7.1,0.2-10.7,0.301c-7.199,0.199-14.699,0.399-22.3,0.5c-7.6,0.1-15.3,0.3-23.1,0.399
		c-7.7,0.101-15.5,0.2-23.101,0.3c-7.6,0.101-15.1,0-22.5,0c-7.3,0-14.3,0-20.899-0.1c-6.7,0-13-0.101-18.7-0.2
		c-5.8,0-11.2-0.2-15.8-0.3c-4.7-0.101-8.801-0.2-12.2-0.3C228.7,294,224.8,293.9,224.8,293.9z"/>
</g>
<g>
	<g>
		<g>
			
				<linearGradient id="SVGID_67_" gradientUnits="userSpaceOnUse" x1="865.4167" y1="-1195.76" x2="864.0688" y2="-1342.3936" gradientTransform="matrix(1 0 0 -1 -595.4199 -1061.4194)">
				<stop  offset="0.0323" style="stop-color:#ECF9D6"/>
				<stop  offset="0.5806" style="stop-color:#D2F98B"/>
				<stop  offset="0.7118" style="stop-color:#D0F78A"/>
				<stop  offset="0.7857" style="stop-color:#C7F187"/>
				<stop  offset="0.8454" style="stop-color:#BAE681"/>
				<stop  offset="0.8975" style="stop-color:#A6D77A"/>
				<stop  offset="0.9446" style="stop-color:#8CC46F"/>
				<stop  offset="0.9876" style="stop-color:#6DAC63"/>
				<stop  offset="1" style="stop-color:#63A45F"/>
			</linearGradient>
			<path id="SVGID_10_" fill="url(#SVGID_67_)" d="M291.4,168.1l0.5-28.3c2.2-0.2,8.6,0.3,10.5-3.1c3.6-6.4,1.5-13.9,0-15.301
				c-1.9-3.6-16.2-8.8-34.3-8.8c-19.4,0-32.5,0.8-33.5,8.3c-0.101,0.2-3,10.9-0.5,13.101c2,1.899,11.8,5.5,11.8,5.5
				c-0.3,0,1.5,8.3,0.5,16.399l-1.5,11.301c-28.7,8.1-48.7,31.399-48.7,59.199c0,34.301,33.6,62.2,73.7,62.2
				c40.2,0,72.2-27.8,72.2-62.2C342.4,198.7,323,176.8,291.4,168.1z"/>
		</g>
		<g>
			<g>
				<g>
					<g>
						<g>
							<g>
								<g>
									<defs>
										<path id="SVGID_68_" d="M291.9,166.8l0.7-27.8c0.699-0.7,7.899,0.7,9.8-2.7c3.6-6.4,1.5-13.9,0-15.3
											c-1.9-3.601-15.101-8.101-33.3-8.101c-19.4,0-27.101,0.9-34.2,8.101c-0.101,0.2-0.9,10.8-0.9,12.5c0,4,11.8,5.5,11.8,5.5
											c-0.3,0-1,0-1,1.5v26.2C216.1,174.8,196.1,198.1,196.1,225.9c0,34.301,33.6,62.2,73.699,62.2
											c40.201,0,72.2-27.8,72.2-62.2C342.4,198.2,322.2,175.1,291.9,166.8z"/>
									</defs>
									<clipPath id="SVGID_69_">
										<use xlink:href="#SVGID_68_"  overflow="visible"/>
									</clipPath>
									
										<ellipse clip-path="url(#SVGID_69_)" fill="#D2F967" stroke="#9BC170" stroke-width="1.3152" stroke-miterlimit="10" cx="268.5" cy="223.5" rx="72.801" ry="10.8"/>
								</g>
							</g>
						</g>
					</g>
				</g>
			</g>
		</g>
		<g>
			<g>
				<g>
					<g>
						<g>
							<g>
								<g>
									<defs>
										<path id="SVGID_70_" d="M291.9,166.8l0.7-27.8c0.699-0.7,7.899,0.7,9.8-2.7c3.6-6.4,1.5-13.9,0-15.3
											c-1.9-3.601-15.101-8.101-33.3-8.101c-19.4,0-27.101,0.9-34.2,8.101c-0.101,0.2-0.9,10.8-0.9,12.5c0,4,11.8,5.5,11.8,5.5
											c-0.3,0-1,0-1,1.5v26.2C216.1,174.8,196.1,198.1,196.1,225.9c0,34.301,33.6,62.2,73.699,62.2
											c40.201,0,72.2-27.8,72.2-62.2C342.4,198.2,322.2,175.1,291.9,166.8z"/>
									</defs>
									<clipPath id="SVGID_71_">
										<use xlink:href="#SVGID_70_"  overflow="visible"/>
									</clipPath>
									<path clip-path="url(#SVGID_71_)" fill="#A3AF79" d="M271.9,115.8c19.1,0,25.2,3.1,24.2,8.1
										c-0.4,2.101-7.301,5.301-26.4,5.301s-28.4-5.5-28.5-8.2C241,115.9,252.8,115.8,271.9,115.8z"/>
								</g>
							</g>
						</g>
					</g>
				</g>
			</g>
		</g>
		<g>
			<path id="SVGID_9_" fill="none" stroke="#687F50" stroke-width="1.5116" stroke-miterlimit="10" d="M292.1,168.7
				c0,0-2.5-19.9,0.5-29c0.399-1.2,8.1,0.1,9.899-3.301c3.601-6.399,1.5-13.899,0-15.3c-1.899-3.6-15.1-8.1-33.3-8.1
				c-19.4,0-27.6,0.6-34.1,5.7c-3.601,6.3-2.5,12-0.9,15.1c1.9,3.5,10.7,2.5,11.8,5.5c2,5.5-1,27.7-1,27.7
				c-28.7,8.1-48.7,31.399-48.7,59.1c0,34.3,33.601,62.2,73.7,62.2c40.101,0,72.2-27.8,72.2-62.2
				C342.4,198.2,322.4,176.6,292.1,168.7z"/>
		</g>
	</g>
	<path opacity="0.5" fill="#FFFFFF" enable-background="new    " d="M249.1,172.9C238.6,176,203.8,194.6,205.8,224.8
		c2,30.3,23.2,54.9,66.5,54.5c11.9-0.1-51.899-10-54.5-47.9C215.1,190.4,249.1,172.9,249.1,172.9z"/>
	
		<linearGradient id="SVGID_72_" gradientUnits="userSpaceOnUse" x1="713.5398" y1="-853.8904" x2="690.0737" y2="-861.6809" gradientTransform="matrix(1 0 0 -1 -425.2988 -644.4995)">
		<stop  offset="0.0323" style="stop-color:#526654"/>
		<stop  offset="1" style="stop-color:#FCFCFC"/>
	</linearGradient>
	<path fill="url(#SVGID_72_)" d="M247.3,220.8c0,0,12,8.6,25.7,4.8c8.601-1.5,9.8-3.5,9.8-3.5s0.4-9.6-8.1-13.6
		c-8.6-4.101-17.5-1.2-21.2,1.5C248,214.2,247.3,220.8,247.3,220.8z"/>
	<path opacity="0.2" fill="#457C52" enable-background="new    " d="M288.5,140.4c-2.5,0.7-17.899,3.7-35-0.5
		c-7.7-1.899,0.5,4.2,6.101,5.601c6.199,1.399,15.6,1,19.699,5.1c2,1.9,1.7,18.9,1.7,18.9s-2.5,2.5-8.1,2.5
		c-5.601,0-14.9,1.5-18.4,3.6c-3.6,2,19.5-1.899,41.101,4.101c21.9,6.1,33,21.899,33,21.899s-12.2-19.2-33.3-27.5
		c-7.101-2.7-7.101-2.5-7.301-3.6C285.8,156.8,288.5,140.4,288.5,140.4z"/>
	<g>
		<g>
			
				<radialGradient id="SVGID_73_" cx="970.8103" cy="-1301.9758" r="68.2598" gradientTransform="matrix(1 0 0 -1 -595.4199 -1061.4194)" gradientUnits="userSpaceOnUse">
				<stop  offset="0" style="stop-color:#FFFFFF"/>
				<stop  offset="1" style="stop-color:#BFB895"/>
			</radialGradient>
			<path id="SVGID_4_" fill="url(#SVGID_73_)" d="M389.1,285.2c-4.601,0-23.101,8.399-27.5,6.8c-13.8-5.2-1.2-12.5-6.8-13.8
				c-5.8-1.2-44.7-2.2-48-16c-3.5-13.801-13.801-63,24.1-74.601c37.8-11.399,67.5-19.5,80.2,6.8
				c12.5,26.301,17.2,41.301,17.2,41.301s20.6-3.5,18.2,9.199c-2.2,12.5-13.801,18.2-13.801,18.2s4.101,2.9,13.801,17.2
				c0.6,1,2.5,9.6,0.6,14.4c-4.6,11.399-10.5-0.7-10.8,1.6c-0.601,4.6-3.7,4.6-5.8,5.2c-4.301,1.2-9.7-9.2-9.7-5.8
				c0,0.6-0.601,6.399-5.8,7.399c-8.601,1.9-8.601-4.1-9.7-3.5c-5.2,2.5-8.101,4.3-10.3,4.101C383.5,301.8,389.1,285.2,389.1,285.2z
				"/>
		</g>
		<g>
			<g>
				<g>
					<g>
						<g>
							<g>
								<g>
									<defs>
										<path id="SVGID_74_" d="M389.1,285.2c-4.601,0-23.101,8.399-27.5,6.8c-13.8-5.2-1.2-12.5-6.8-13.8
											c-5.8-1.2-44.7-2.2-48-16c-3.5-13.801-13.801-63,24.1-74.601c37.8-11.399,67.5-19.5,80.2,6.8
											c12.5,26.301,17.2,41.301,17.2,41.301s20.6-3.5,18.2,9.199c-2.2,12.5-13.801,18.2-13.801,18.2s4.101,2.9,13.801,17.2
											c0.6,1,2.5,9.6,0.6,14.4c-4.6,11.399-10.5-0.7-10.8,1.6c-0.601,4.6-3.7,4.6-5.8,5.2c-4.301,1.2-9.7-9.2-9.7-5.8
											c0,0.6-0.601,6.399-5.8,7.399c-8.601,1.9-8.601-4.1-9.7-3.5c-5.2,2.5-8.101,4.3-10.3,4.101
											C383.5,301.8,389.1,285.2,389.1,285.2z"/>
									</defs>
									<clipPath id="SVGID_75_">
										<use xlink:href="#SVGID_74_"  overflow="visible"/>
									</clipPath>
									<path clip-path="url(#SVGID_75_)" fill="#FFFFFF" d="M450,274.9c-7.399-4.1-15.399-6.399-17.6,0.601s-3.5-4.601-8.6,0.6
										c-5.2,5.2-5.2,5.2-5.2,5.2s-6.4-3.5-8.601-3.5c-2.199,0-6.399,4.6-6.399,4.6s-6.4-4.1-9.2-3.5
										c-2.9,0.601-11.4,15.4-11.4,15.4l14.4,18.2l52.7-13.2v-24.4H450L450,274.9z"/>
								</g>
							</g>
						</g>
					</g>
				</g>
			</g>
		</g>
		<g>
			<path id="SVGID_3_" fill="none" stroke="#685A5A" stroke-width="1.5116" stroke-miterlimit="10" d="M389.1,285.2
				c-4.601,0-23.101,8.399-27.5,6.8c-13.8-5.2-1.2-12.5-6.8-13.8c-5.8-1.2-44.7-2.2-48-16c-3.5-13.801-13.801-63,24.1-74.601
				c37.8-11.399,67.5-19.5,80.2,6.8c12.5,26.301,17.2,41.301,17.2,41.301s20.6-3.5,18.2,9.199c-2.2,12.5-13.801,18.2-13.801,18.2
				s4.101,2.9,13.801,17.2c0.6,1,2.5,9.6,0.6,14.4c-4.6,11.399-10.5-0.7-10.8,1.6c-0.601,4.6-3.7,4.6-5.8,5.2
				c-4.301,1.2-9.7-9.2-9.7-5.8c0,0.6-0.601,6.399-5.8,7.399c-8.601,1.9-8.601-4.1-9.7-3.5c-5.2,2.5-8.101,4.3-10.3,4.101
				C383.5,301.8,389.1,285.2,389.1,285.2z"/>
		</g>
	</g>
	<path fill="#011500" d="M376,254.8c-9.699-3.5-20.1-7.4-20.1-18.2s1.2-25.8,13.2-18.2c12,7.4,17.2,15,17.6,22.5
		C387.9,255.3,376,254.8,376,254.8z"/>
	<path fill="#011500" d="M417.301,242.3c-5.2,0-16.601,0-17.601-10.3c-1.2-10.3,1.2-18.9,5.8-18.2c4.601,0.6,8.101,4.1,9.2,9.2
		c1.2,5.2,5.2,8.1,5.2,11.399C419.6,237.5,417.301,242.3,417.301,242.3z"/>
	<path fill="#011500" d="M415.5,254.8c0,0-9.699-3.5-14.399-7.4c-4.601-4.1-4.601-4.1-4.601-4.1s2.9,11.4,6.801,13.8
		C407.4,259.3,415.5,254.8,415.5,254.8z"/>
	
		<linearGradient id="SVGID_76_" gradientUnits="userSpaceOnUse" x1="744.4548" y1="-853.8689" x2="835.363" y2="-853.8689" gradientTransform="matrix(1 0 0 -1 -425.2988 -644.4995)">
		<stop  offset="0.0323" style="stop-color:#526654"/>
		<stop  offset="1" style="stop-color:#06243D"/>
	</linearGradient>
	<path opacity="0.3" fill="url(#SVGID_76_)" enable-background="new    " d="M336.7,234.8c0.5-9.6-0.5-19.7,7.601-25.7
		c8.1-6.1,18.6-8.1,24.2-6.1c5.6,2,16.1,13,17.1,15.1c1,2,6.6,9.101,6.6,9.101s2.5-7.101,1.5-12.5c-1-5.601,2-8.601,4.601-9.101
		c2.5-0.5,10-1,11.5-0.5s-3.601-11-10.5-15.1c-7.101-4.101-28.2-10.5-45.3-1.5c-17.101,9.1-27.7,10-33.801,24.7
		C314.1,227.9,336.7,234.8,336.7,234.8z"/>
	
		<linearGradient id="SVGID_77_" gradientUnits="userSpaceOnUse" x1="772.0994" y1="-904.5125" x2="816.4001" y2="-904.5125" gradientTransform="matrix(1 0 0 -1 -425.2988 -644.4995)">
		<stop  offset="0.0323" style="stop-color:#526654"/>
		<stop  offset="1" style="stop-color:#06243D"/>
	</linearGradient>
	<path opacity="0.4" fill="url(#SVGID_77_)" enable-background="new    " d="M391.1,249.4C390.6,253.5,384,268,367.5,260.4
		c-16.6-7.6-20.699-10-20.699-10s4.1,9.101,10.5,12.5c6.6,3.601,22.199,11,27.199,6.101C389.6,264.1,391.1,249.4,391.1,249.4z"/>
	
		<linearGradient id="SVGID_78_" gradientUnits="userSpaceOnUse" x1="838.5789" y1="-888.8347" x2="850.655" y2="-888.8347" gradientTransform="matrix(1 0 0 -1 -425.2988 -644.4995)">
		<stop  offset="0.0323" style="stop-color:#526654"/>
		<stop  offset="1" style="stop-color:#06243D"/>
	</linearGradient>
	<path opacity="0.4" fill="url(#SVGID_78_)" enable-background="new    " d="M413.2,247.5c2.5,0.5,9.101,0,10.101-4.601
		c1-4.6,1-4.6,1-4.6s2.5,11.5-0.5,12C420.801,250.9,413.2,247.5,413.2,247.5z"/>
	<path fill="#526675" d="M255,224.6c0,0,6.601,2.5,15.5,1.4c5.3-0.7,5.2-1.101,5.2-1.101s0-6-4.8-8.3c-4.8-2.399-9.9-0.7-12,0.8
		C255.6,219.8,255,224.6,255,224.6z"/>
	<path fill="#1D2226" d="M257.9,225.3c0,0,4.7,1.9,11.3,1c3.8-0.5,3.7-0.8,3.7-0.8s0-4.2-3.601-5.8c-3.6-1.601-7.199-0.5-8.699,0.6
		C258.4,221.9,257.9,225.3,257.9,225.3z"/>
	<g>
		<g>
			
				<linearGradient id="SVGID_79_" gradientUnits="userSpaceOnUse" x1="671.6404" y1="-744.9578" x2="716.698" y2="-744.9578" gradientTransform="matrix(1 0 0 -1 -425.2988 -644.4995)">
				<stop  offset="0.0323" style="stop-color:#F4E08E"/>
				<stop  offset="1" style="stop-color:#BD8172"/>
			</linearGradient>
			<path id="SVGID_6_" fill="url(#SVGID_79_)" d="M250.1,120.6c0,0,8.1,4,18,4.2c12.5,0.3,19.1-3.5,19.1-3.5s-3.6-12,4.3-38.8
				c0.9-4.601-8.899-6.2-22.5-6.4c-19.1,0-22.5,8.101-22.5,8.101s2.5,3.5,5.2,19.699C253.3,118.1,250.1,120.6,250.1,120.6z"/>
		</g>
		<g>
			<g>
				<g>
					<g>
						<g>
							<defs>
								<path id="SVGID_80_" d="M250.2,120.6c0,0,7.7,4.2,17.5,4.2s19.2-3.6,19.2-3.6s-1.7-16.4,4.2-38.601
									c0.899-4.6-8.9-6.2-22.5-6.399c-19.101,0-22.5,8.1-22.5,8.1s2.1,4.6,4.8,20.7C253.8,121.1,250.2,120.6,250.2,120.6z"/>
							</defs>
							<clipPath id="SVGID_81_">
								<use xlink:href="#SVGID_80_"  overflow="visible"/>
							</clipPath>
						</g>
						<g>
							<defs>
								<path id="SVGID_82_" d="M250.2,120.6c0,0,7.7,4.2,17.5,4.2s19.2-3.6,19.2-3.6s-1.7-16.4,4.2-38.601
									c0.899-4.6-8.9-6.2-22.5-6.399c-19.101,0-22.5,8.1-22.5,8.1s2.1,4.6,4.8,20.7C253.8,121.1,250.2,120.6,250.2,120.6z"/>
							</defs>
							<defs>
								<path id="SVGID_83_" d="M250.1,120.6c0,0,8.1,4,18,4.2c12.5,0.3,19.1-3.5,19.1-3.5s-3.6-12,4.3-38.8
									c0.9-4.601-8.899-6.2-22.5-6.4c-19.1,0-22.5,8.101-22.5,8.101s2.5,3.5,5.2,19.699C253.3,118.1,250.1,120.6,250.1,120.6z"/>
							</defs>
							<clipPath id="SVGID_84_">
								<use xlink:href="#SVGID_82_"  overflow="visible"/>
							</clipPath>
							<clipPath id="SVGID_85_" clip-path="url(#SVGID_84_)">
								<use xlink:href="#SVGID_83_"  overflow="visible"/>
							</clipPath>
							<ellipse clip-path="url(#SVGID_85_)" fill="#AD9773" cx="284.1" cy="98.7" rx="5.1" ry="4.6"/>
						</g>
					</g>
				</g>
			</g>
		</g>
		<g>
			<g>
				<g>
					<g>
						<g>
							<defs>
								<path id="SVGID_86_" d="M250.2,120.6c0,0,7.7,4.2,17.5,4.2s19.2-3.6,19.2-3.6s-1.7-16.4,4.2-38.601
									c0.899-4.6-8.9-6.2-22.5-6.399c-19.101,0-22.5,8.1-22.5,8.1s2.1,4.6,4.8,20.7C253.8,121.1,250.2,120.6,250.2,120.6z"/>
							</defs>
							<clipPath id="SVGID_87_">
								<use xlink:href="#SVGID_86_"  overflow="visible"/>
							</clipPath>
						</g>
						<g>
							<defs>
								<path id="SVGID_88_" d="M250.2,120.6c0,0,7.7,4.2,17.5,4.2s19.2-3.6,19.2-3.6s-1.7-16.4,4.2-38.601
									c0.899-4.6-8.9-6.2-22.5-6.399c-19.101,0-22.5,8.1-22.5,8.1s2.1,4.6,4.8,20.7C253.8,121.1,250.2,120.6,250.2,120.6z"/>
							</defs>
							<defs>
								<path id="SVGID_89_" d="M250.1,120.6c0,0,8.1,4,18,4.2c12.5,0.3,19.1-3.5,19.1-3.5s-3.6-12,4.3-38.8
									c0.9-4.601-8.899-6.2-22.5-6.4c-19.1,0-22.5,8.101-22.5,8.101s2.5,3.5,5.2,19.699C253.3,118.1,250.1,120.6,250.1,120.6z"/>
							</defs>
							<clipPath id="SVGID_90_">
								<use xlink:href="#SVGID_88_"  overflow="visible"/>
							</clipPath>
							<clipPath id="SVGID_91_" clip-path="url(#SVGID_90_)">
								<use xlink:href="#SVGID_89_"  overflow="visible"/>
							</clipPath>
							<ellipse clip-path="url(#SVGID_91_)" fill="#AD9773" cx="256.3" cy="97.9" rx="2.601" ry="3.1"/>
						</g>
					</g>
				</g>
			</g>
		</g>
		<g>
			<g>
				<g>
					<g>
						<g>
							<defs>
								<path id="SVGID_92_" d="M250.2,120.6c0,0,7.7,4.2,17.5,4.2s19.2-3.6,19.2-3.6s-1.7-16.4,4.2-38.601
									c0.899-4.6-8.9-6.2-22.5-6.399c-19.101,0-22.5,8.1-22.5,8.1s2.1,4.6,4.8,20.7C253.8,121.1,250.2,120.6,250.2,120.6z"/>
							</defs>
							<clipPath id="SVGID_93_">
								<use xlink:href="#SVGID_92_"  overflow="visible"/>
							</clipPath>
						</g>
						<g>
							<defs>
								<path id="SVGID_94_" d="M250.2,120.6c0,0,7.7,4.2,17.5,4.2s19.2-3.6,19.2-3.6s-1.7-16.4,4.2-38.601
									c0.899-4.6-8.9-6.2-22.5-6.399c-19.101,0-22.5,8.1-22.5,8.1s2.1,4.6,4.8,20.7C253.8,121.1,250.2,120.6,250.2,120.6z"/>
							</defs>
							<defs>
								<path id="SVGID_95_" d="M250.1,120.6c0,0,8.1,4,18,4.2c12.5,0.3,19.1-3.5,19.1-3.5s-3.6-12,4.3-38.8
									c0.9-4.601-8.899-6.2-22.5-6.4c-19.1,0-22.5,8.101-22.5,8.101s2.5,3.5,5.2,19.699C253.3,118.1,250.1,120.6,250.1,120.6z"/>
							</defs>
							<clipPath id="SVGID_96_">
								<use xlink:href="#SVGID_94_"  overflow="visible"/>
							</clipPath>
							<clipPath id="SVGID_97_" clip-path="url(#SVGID_96_)">
								<use xlink:href="#SVGID_95_"  overflow="visible"/>
							</clipPath>
							<ellipse clip-path="url(#SVGID_97_)" fill="#AD9773" cx="272.7" cy="115.2" rx="4.7" ry="4"/>
						</g>
					</g>
				</g>
			</g>
		</g>
		<g>
			<g>
				<g>
					<g>
						<g>
							<defs>
								<path id="SVGID_98_" d="M250.2,120.6c0,0,7.7,4.2,17.5,4.2s19.2-3.6,19.2-3.6s-1.7-16.4,4.2-38.601
									c0.899-4.6-8.9-6.2-22.5-6.399c-19.101,0-22.5,8.1-22.5,8.1s2.1,4.6,4.8,20.7C253.8,121.1,250.2,120.6,250.2,120.6z"/>
							</defs>
							<clipPath id="SVGID_99_">
								<use xlink:href="#SVGID_98_"  overflow="visible"/>
							</clipPath>
						</g>
						<g>
							<defs>
								<path id="SVGID_100_" d="M250.2,120.6c0,0,7.7,4.2,17.5,4.2s19.2-3.6,19.2-3.6s-1.7-16.4,4.2-38.601
									c0.899-4.6-8.9-6.2-22.5-6.399c-19.101,0-22.5,8.1-22.5,8.1s2.1,4.6,4.8,20.7C253.8,121.1,250.2,120.6,250.2,120.6z"/>
							</defs>
							<defs>
								<path id="SVGID_101_" d="M250.1,120.6c0,0,8.1,4,18,4.2c12.5,0.3,19.1-3.5,19.1-3.5s-3.6-12,4.3-38.8
									c0.9-4.601-8.899-6.2-22.5-6.4c-19.1,0-22.5,8.101-22.5,8.101s2.5,3.5,5.2,19.699C253.3,118.1,250.1,120.6,250.1,120.6z"/>
							</defs>
							<clipPath id="SVGID_102_">
								<use xlink:href="#SVGID_100_"  overflow="visible"/>
							</clipPath>
							<clipPath id="SVGID_103_" clip-path="url(#SVGID_102_)">
								<use xlink:href="#SVGID_101_"  overflow="visible"/>
							</clipPath>
							<circle clip-path="url(#SVGID_103_)" fill="#AD9773" cx="268.5" cy="90.9" r="3.6"/>
						</g>
					</g>
				</g>
			</g>
		</g>
		<g>
			<g>
				<g>
					<g>
						<g>
							<defs>
								<path id="SVGID_104_" d="M250.2,120.6c0,0,7.7,4.2,17.5,4.2s19.2-3.6,19.2-3.6s-1.7-16.4,4.2-38.601
									c0.899-4.6-8.9-6.2-22.5-6.399c-19.101,0-22.5,8.1-22.5,8.1s2.1,4.6,4.8,20.7C253.8,121.1,250.2,120.6,250.2,120.6z"/>
							</defs>
							<clipPath id="SVGID_105_">
								<use xlink:href="#SVGID_104_"  overflow="visible"/>
							</clipPath>
						</g>
						<g>
							<defs>
								<path id="SVGID_106_" d="M250.2,120.6c0,0,7.7,4.2,17.5,4.2s19.2-3.6,19.2-3.6s-1.7-16.4,4.2-38.601
									c0.899-4.6-8.9-6.2-22.5-6.399c-19.101,0-22.5,8.1-22.5,8.1s2.1,4.6,4.8,20.7C253.8,121.1,250.2,120.6,250.2,120.6z"/>
							</defs>
							<defs>
								<path id="SVGID_107_" d="M250.1,120.6c0,0,8.1,4,18,4.2c12.5,0.3,19.1-3.5,19.1-3.5s-3.6-12,4.3-38.8
									c0.9-4.601-8.899-6.2-22.5-6.4c-19.1,0-22.5,8.101-22.5,8.101s2.5,3.5,5.2,19.699C253.3,118.1,250.1,120.6,250.1,120.6z"/>
							</defs>
							<clipPath id="SVGID_108_">
								<use xlink:href="#SVGID_106_"  overflow="visible"/>
							</clipPath>
							<clipPath id="SVGID_109_" clip-path="url(#SVGID_108_)">
								<use xlink:href="#SVGID_107_"  overflow="visible"/>
							</clipPath>
							<circle clip-path="url(#SVGID_109_)" fill="#AD9773" cx="268.1" cy="103.1" r="2.5"/>
						</g>
					</g>
				</g>
			</g>
		</g>
		<g>
			<g>
				<g>
					<g>
						<g>
							<defs>
								<path id="SVGID_110_" d="M250.2,120.6c0,0,7.7,4.2,17.5,4.2s19.2-3.6,19.2-3.6s-1.7-16.4,4.2-38.601
									c0.899-4.6-8.9-6.2-22.5-6.399c-19.101,0-22.5,8.1-22.5,8.1s2.1,4.6,4.8,20.7C253.8,121.1,250.2,120.6,250.2,120.6z"/>
							</defs>
							<clipPath id="SVGID_111_">
								<use xlink:href="#SVGID_110_"  overflow="visible"/>
							</clipPath>
						</g>
						<g>
							<defs>
								<path id="SVGID_112_" d="M250.2,120.6c0,0,7.7,4.2,17.5,4.2s19.2-3.6,19.2-3.6s-1.7-16.4,4.2-38.601
									c0.899-4.6-8.9-6.2-22.5-6.399c-19.101,0-22.5,8.1-22.5,8.1s2.1,4.6,4.8,20.7C253.8,121.1,250.2,120.6,250.2,120.6z"/>
							</defs>
							<defs>
								<path id="SVGID_113_" d="M250.1,120.6c0,0,8.1,4,18,4.2c12.5,0.3,19.1-3.5,19.1-3.5s-3.6-12,4.3-38.8
									c0.9-4.601-8.899-6.2-22.5-6.4c-19.1,0-22.5,8.101-22.5,8.101s2.5,3.5,5.2,19.699C253.3,118.1,250.1,120.6,250.1,120.6z"/>
							</defs>
							<clipPath id="SVGID_114_">
								<use xlink:href="#SVGID_112_"  overflow="visible"/>
							</clipPath>
							<clipPath id="SVGID_115_" clip-path="url(#SVGID_114_)">
								<use xlink:href="#SVGID_113_"  overflow="visible"/>
							</clipPath>
							<ellipse clip-path="url(#SVGID_115_)" fill="#AD9773" cx="254.9" cy="112.3" rx="3.6" ry="4.2"/>
						</g>
					</g>
				</g>
			</g>
		</g>
		<g>
			<g>
				<g>
					<g>
						<g>
							<defs>
								<path id="SVGID_116_" d="M250.2,120.6c0,0,7.7,4.2,17.5,4.2s19.2-3.6,19.2-3.6s-1.7-16.4,4.2-38.601
									c0.899-4.6-8.9-6.2-22.5-6.399c-19.101,0-22.5,8.1-22.5,8.1s2.1,4.6,4.8,20.7C253.8,121.1,250.2,120.6,250.2,120.6z"/>
							</defs>
							<clipPath id="SVGID_117_">
								<use xlink:href="#SVGID_116_"  overflow="visible"/>
							</clipPath>
						</g>
						<g>
							<defs>
								<path id="SVGID_118_" d="M250.2,120.6c0,0,7.7,4.2,17.5,4.2s19.2-3.6,19.2-3.6s-1.7-16.4,4.2-38.601
									c0.899-4.6-8.9-6.2-22.5-6.399c-19.101,0-22.5,8.1-22.5,8.1s2.1,4.6,4.8,20.7C253.8,121.1,250.2,120.6,250.2,120.6z"/>
							</defs>
							<defs>
								<path id="SVGID_119_" d="M250.1,120.6c0,0,8.1,4,18,4.2c12.5,0.3,19.1-3.5,19.1-3.5s-3.6-12,4.3-38.8
									c0.9-4.601-8.899-6.2-22.5-6.4c-19.1,0-22.5,8.101-22.5,8.101s2.5,3.5,5.2,19.699C253.3,118.1,250.1,120.6,250.1,120.6z"/>
							</defs>
							<clipPath id="SVGID_120_">
								<use xlink:href="#SVGID_118_"  overflow="visible"/>
							</clipPath>
							<clipPath id="SVGID_121_" clip-path="url(#SVGID_120_)">
								<use xlink:href="#SVGID_119_"  overflow="visible"/>
							</clipPath>
							<ellipse clip-path="url(#SVGID_121_)" fill="#AD9773" cx="286.3" cy="118.7" rx="3.2" ry="3.5"/>
						</g>
					</g>
				</g>
			</g>
		</g>
		<g>
			<g>
				<g>
					<g>
						<g>
							<defs>
								<path id="SVGID_122_" d="M250.2,120.6c0,0,7.7,4.2,17.5,4.2s19.2-3.6,19.2-3.6s-1.7-16.4,4.2-38.601
									c0.899-4.6-8.9-6.2-22.5-6.399c-19.101,0-22.5,8.1-22.5,8.1s2.1,4.6,4.8,20.7C253.8,121.1,250.2,120.6,250.2,120.6z"/>
							</defs>
							<clipPath id="SVGID_123_">
								<use xlink:href="#SVGID_122_"  overflow="visible"/>
							</clipPath>
						</g>
						<g>
							<defs>
								<path id="SVGID_124_" d="M250.2,120.6c0,0,7.7,4.2,17.5,4.2s19.2-3.6,19.2-3.6s-1.7-16.4,4.2-38.601
									c0.899-4.6-8.9-6.2-22.5-6.399c-19.101,0-22.5,8.1-22.5,8.1s2.1,4.6,4.8,20.7C253.8,121.1,250.2,120.6,250.2,120.6z"/>
							</defs>
							<defs>
								<path id="SVGID_125_" d="M250.1,120.6c0,0,8.1,4,18,4.2c12.5,0.3,19.1-3.5,19.1-3.5s-3.6-12,4.3-38.8
									c0.9-4.601-8.899-6.2-22.5-6.4c-19.1,0-22.5,8.101-22.5,8.101s2.5,3.5,5.2,19.699C253.3,118.1,250.1,120.6,250.1,120.6z"/>
							</defs>
							<clipPath id="SVGID_126_">
								<use xlink:href="#SVGID_124_"  overflow="visible"/>
							</clipPath>
							<clipPath id="SVGID_127_" clip-path="url(#SVGID_126_)">
								<use xlink:href="#SVGID_125_"  overflow="visible"/>
							</clipPath>
							
								<ellipse clip-path="url(#SVGID_127_)" fill="#77624A" stroke="#7C6E50" stroke-width="0.4536" stroke-miterlimit="10" cx="269" cy="79.8" rx="24.9" ry="9.8"/>
						</g>
					</g>
				</g>
			</g>
		</g>
		<g>
			<path id="SVGID_1_" fill="none" stroke="#7C6E50" stroke-width="0.9067" stroke-miterlimit="10" d="M250.1,120.6
				c0,0,8.1,4,18,4.2c12.5,0.3,19.1-3.5,19.1-3.5s-3.6-12,4.3-38.8c0.9-4.601-8.899-6.2-22.5-6.4c-19.1,0-22.5,8.101-22.5,8.101
				s2.5,3.5,5.2,19.699C253.3,118.1,250.1,120.6,250.1,120.6z"/>
		</g>
	</g>
	<path fill="none" stroke="#A38686" stroke-width="1.5116" stroke-miterlimit="10" d="M403.6,282.4c0.5,1.7,3.5,13.4,2.3,17.4"/>
	<path fill="none" stroke="#A38686" stroke-width="1.5116" stroke-miterlimit="10" d="M418.6,281.3c0,0,3.3,4,2.8,13.5"/>
	<path fill="none" stroke="#A38686" stroke-width="1.5116" stroke-miterlimit="10" d="M430.9,277.6c0,0,6.3,5.5,5.4,18.8"/>
</g>
</svg>
